<?xml version="1.0" encoding="UTF-8"?><svg id="a" xmlns="http://www.w3.org/2000/svg" viewBox="0 0 2752.96 717.68"><path d="M2200.26,624c-37.65,44.7-84.54,73.97-141.03,85.42-117.77,22.21-236.3-13.9-284.99-129.69-14.85-35.31-19.78-71.64-20.02-109.98-.27-44.04,6.63-86.33,24.45-126.37,28.91-64.95,80.72-111.6,150.76-126.87,36.55-7.97,73.83-8.49,110.73-1.91,45.25,8.06,84.54,29.6,115.83,62.91,56.3,65.15,67.73,152.08,58.91,237.25h-317.17c7.69,28.54,26.51,50.8,54.22,61.19,29.45,10.38,60.73,10.52,90.55,1.3,22.54-8.12,41.35-21.41,56.6-42l101.17,88.74ZM2079.13,406.24c-3.27-19.4-11.08-35.99-23.53-49.42-18.7-18.18-43.4-26.15-69.41-25.6-45.21.96-78.85,32.03-87.07,74.91l180.01.11Z" fill="#030304"/><path d="M1544.05,707.21c-107.93,27.92-226.77.21-300.2-85.96-28.19-33.08-44.88-72.32-50.46-116.07l147.9-38.93c2.59,27.33,10.7,52.72,26.94,73.9,29.75,38.81,87.31,51.64,134.23,40.08,20.52-5.06,38.43-17.36,48.54-35.2,16.36-28.88,8.89-62.37-17.58-81.78-17.07-12.51-35.22-21.86-54.79-30.62l-92.03-41.24c-27.54-12.34-52.68-26.79-76.52-45.01-22.37-17.09-40.4-37.18-53.09-62.44-18.98-37.78-20.75-87.97-12.53-129.84,7.87-40.14,28.97-73.96,59.6-101.1,56.51-50.08,138.38-61.52,211.64-47.4,71.83,13.83,130.63,61.15,160.05,127.74l-124.9,79.43-9.02-15.81c-7.35-13.94-15.11-27.97-27.34-38.49-23.57-20.29-56.54-26.96-85.46-16.6-16.14,5.78-28.51,18.48-33.37,31.58-6.55,17.65-5.12,36.37,5.53,50.16,10.73,13.89,24.67,24.45,40.5,31.64l70.11,31.84c53.6,24.34,119.76,46.45,159.17,94.17,16.45,19.92,28.48,41.53,33.55,66.91,15.25,76.43-4.73,152.82-62.51,205.39-28.3,25.75-60.69,44.03-97.94,53.67Z" fill="#030304"/><path d="M2488.51,699.2c-35.61,17.04-94.03,18.93-130.6,6.38-57.64-19.78-75.44-72.64-75.42-131.11l.13-393.86-.16-38.04.23-124.2,144.11-.04v536.53s3.65,22.34,3.65,22.34c4.89,5.77,10.5,8.84,17.94,11.25,13.3,1.12,25.07-.24,40.13-3.82l-.03,114.57Z" fill="#030304"/><path d="M2752.78,699.04c-36.65,16.26-80.7,17.81-119.54,10.23-60.1-15.23-84.38-62.28-86.7-122.92l.02-567.92,144.5-.15v546.69c2.22,11.69,7.68,20.15,19.04,22.48,13.97,2.86,28.34.95,42.86-2.86l-.18,114.45Z" fill="#030304"/><path d="M507.74,705.17l-49.15-126.57-246.69-.02-47.33,126.46H0s181.75-445.04,181.75-445.04L280.19,18.32l111.58-.03,199.81,488.25,38.09,92.7,43.74,105.75-165.68.17ZM261.66,447.42l147.68.05-73.8-194.81-40.12,103.97-33.75,90.79Z" fill="#687ad7"/><path d="M835.69,712.85c-89.17-12.15-142.72-80.49-162.21-164.97-18.66-80.89-10.96-180.48,33.55-251.53,24.73-39.47,61.01-67.53,105.96-80.31,66-14.19,127.22-5.45,175.65,44.92l-.02-242.47,143.99-.37.04,686.9-143.11.08-.9-39.13c-40,43.67-96.23,54.59-152.96,46.87ZM900.9,579.89c41.09.98,75.29-21.91,87.99-60.73,10.59-32.37,11.75-67.43,3.2-100.79-3.85-15.02-9.49-29.05-19.11-41.05-20.05-25.03-51.84-35.72-83.44-32.54-29.62,2.98-53.85,19.67-66.47,46.58-18.81,40.12-19.96,95.87-2.95,135.64,14.24,33.31,44.11,52.01,80.78,52.88Z" fill="#687ad7"/></svg>