<?xml version="1.0" encoding="UTF-8"?><svg id="a" xmlns="http://www.w3.org/2000/svg" viewBox="0 0 823.0605 270.8945"><defs><style>.b{fill:#10233f;}</style></defs><path class="b" d="M.0002,0h60.9999c39.6002,0,66.2001,28.6,66.2001,72.3999,0,25.2001-8.7999,45.4-24.8001,57.5999-11.1999,8.4-25.6,13.0002-43.5997,13.0002H.0002V0ZM56.8998,114c23.311,0,35.368-14.6701,35.368-40.9955,0-26.1242-12.66-43.0045-34.9662-43.0045h-21.3014v84h20.8995Z"/><path class="b" d="M131.4385,92.5407c0-30.0982,21.0496-53.1151,51.7386-53.1151,14.3606,0,25.7703,4.7212,34.4266,12.5903,12,11.0164,17.9018,28.5248,17.7049,48.9841h-72.3938c1.9668,13.5739,9.4425,22.0327,22.623,22.0327,8.4588,0,13.9673-3.7376,16.7212-10.0327h31.2792c-2.1642,9.0491-8.066,17.7053-16.9182,23.8036-8.4593,5.9018-18.689,9.246-31.4757,9.246-33.2465,0-53.7058-23.0169-53.7058-53.5089ZM203.1716,81c-1.2002-12.1997-8.7998-19.9995-19.3999-19.9995-12.3994,0-18.7993,7.7998-20.9995,19.9995h40.3994Z"/><path class="b" d="M243.0002,41h31v14h.6313c6.3999-10.0283,16.1997-17.0283,30.9995-17.0283,13.3994,0,28.7993,18.0283,28.7993,18.0283h.8762c7.9635-12.3434,18.9134-17.9179,32.0529-17.9179,23.0939,0,34.6407,15.7278,34.6407,38.6224v66.2955h-33v-60.7988c0-11-4.6599-17.3999-14.5881-17.3999-10.5362,0-16.4119,8.5996-16.4119,20.7998v57.3989h-32v-60.7988c0-11-4.6603-17.3999-14.5883-17.3999-10.3332,0-16.4117,8.5996-16.4117,20.7998v57.3989h-32V41Z"/><path class="b" d="M413.0002,41h32v13h.1895c7-9.8281,17-16.0283,30.999-16.0283,27.2002,0,43.7998,23.3999,43.7998,54.1992,0,33.1997-17.7998,54.3994-44.5996,54.3994-13.1992,0-22.5996-5.2002-28.999-13.5703h-.3896v44h-33V41ZM486.9885,93.3711c0-17.6001-6.5996-29.1997-20.5996-29.1997-14.1992,0-21.3994,12.5996-21.3994,29.1997s8,27.9995,22,27.9995c12.3994,0,19.999-10.6001,19.999-27.9995Z"/><path class="b" d="M521.1979,110h30.4876c1.188,10.0968,7.9189,15.0461,18.6092,15.0461,9.7005,0,15.8378-3.5636,15.8378-10.0968,0-9.1064-12.2747-10.0963-25.7364-12.4719-17.6194-2.9696-36.4258-7.7207-36.4258-31.4774,0-21.3806,19.7963-32.4668,43.7511-32.4668,28.705,0,44.1465,12.4719,45.7309,32.4668h-29.6959c-1.188-9.1064-7.3244-11.8779-16.2332-11.8779-7.9189,0-14.0562,2.9696-14.0562,9.3046,0,7.1267,11.482,8.1166,24.3502,10.4922,17.8175,2.9696,38.8018,7.5231,38.8018,33.4572,0,22.1723-19.5981,33.6548-46.1262,33.6548-29.6959,0-48.3051-13.6599-49.295-36.0309Z"/><path class="b" d="M619.1152,92.5407c0-30.0982,21.0491-53.1151,51.7376-53.1151,14.3606,0,25.7713,4.7212,34.4271,12.5903,11.9995,11.0164,17.9013,28.5248,17.7053,48.9841h-72.3948c1.9673,13.5739,9.4425,22.0327,22.6235,22.0327,8.4588,0,13.9668-3.7376,16.7217-10.0327h31.2783c-2.1632,9.0491-8.065,17.7053-16.9177,23.8036-8.4588,5.9018-18.689,9.246-31.4762,9.246-33.2455,0-53.7049-23.0169-53.7049-53.5089ZM690.8479,81c-1.2002-12.1997-8.7998-19.9995-19.3994-19.9995-12.4004,0-18.7998,7.7998-21,19.9995h40.3994Z"/><path class="b" d="M728.0002,152h11.2196c9.6181,0,13.4248-3.8067,13.4248-10.8195,0-4.4079-2.0036-10.4188-6.2115-21.2383l-30.2542-78.9422h34.2487l13.7589,43.4699c3.1897,9.9704,6.3804,23.5301,6.3804,23.5301h.3992s2.7915-13.5598,5.9822-23.5301l13.3597-43.4699h32.7521l-35.348,103.6476c-8.1883,23.9647-17.9739,32.3524-38.5436,32.3524h-21.1684v-25Z"/><path class="b" d="M24.8681,198.8583h14.8018l24.8667,70.5557h-14.9004l-4.7363-14.999h-25.4595l-4.6377,14.999H.2969l24.5713-70.5557ZM22.7959,243.4618h18.6499l-6.3154-20.3281c-1.1841-3.75-2.8613-10.8545-2.8613-10.8545h-.1978s-1.7759,7.1045-2.96,10.8545l-6.3154,20.3281Z"/><path class="b" d="M204.5552,259.9403h-.1973c-4.8354,8.0918-11.4468,10.9541-19.8345,10.9541-10.6572,0-18.9463-3.8486-24.7686-10.2627-5.8218-6.5127-9.1768-15.5918-9.1768-26.249,0-11.7422,4.144-22.0049,11.5449-28.8135,5.7236-5.2305,13.2231-8.0918,22.6963-8.0918,17.7622,0,27.9263,9.7686,30.1958,23.584h-14.0127c-1.5786-6.8086-6.8086-11.7432-15.8872-11.7432-13.3213,0-19.9331,11.0527-19.9331,25.0645,0,14.4072,7.5986,24.9658,19.7358,24.9658,10.9536,0,18.1567-8.1904,18.1567-15.9854v-.3955h-16.9727v-11.0518h29.7026v37.498h-10.7563l-.4932-9.4736Z"/><path class="b" d="M313.2524,198.8583h51.9048v12.0391h-37.5962v15.7891h32.9585v11.7422h-32.9585v19.0449h37.8926v11.9404h-52.2012v-70.5557Z"/><path class="b" d="M461.0068,198.8583h14.5049l23.4863,39.373c2.2695,3.8486,4.9336,9.8682,4.9336,9.8682h.1973s-.3945-7.3027-.3945-12.2363v-37.0049h14.1113v70.5557h-13.8154l-24.0771-38.9785c-2.2705-3.749-5.0332-9.7686-5.0332-9.7686h-.1973s.3945,7.4004.3945,12.335v36.4121h-14.1104v-70.5557Z"/><path class="b" d="M612.6972,234.3827c0-20.9199,13.0254-36.9053,33.8467-36.9053,17.3672,0,27.6299,10.3613,29.1104,23.7812h-14.21c-1.2822-7.1045-6.6113-11.7422-14.9004-11.7422-13.0254,0-19.2422,10.8545-19.2422,24.8662,0,14.4072,7.5,24.7686,19.3408,24.7686,8.3877,0,14.3086-5.0322,15.1963-12.4336h14.0127c-.3945,6.2168-3.0586,12.2363-7.7959,16.6768-4.835,4.5391-11.6436,7.5-21.4131,7.5-19.834,0-33.9453-15.2959-33.9453-36.5117Z"/><path class="b" d="M784.875,242.1786l-23.4854-43.3203h15.5918l10.6572,20.9199c2.1709,4.2432,4.6377,10.0654,4.6377,10.0654h.1973s2.6641-5.8223,4.7363-10.0654l10.46-20.9199h14.999l-23.4854,43.3203v27.2354h-14.3086v-27.2354Z"/></svg>