<?xml version="1.0" encoding="UTF-8"?><svg id="a" xmlns="http://www.w3.org/2000/svg" viewBox="0 0 667.7705 220.8032"><path d="M50,168.3186l47.9887-115.3357h19.0285l47.8271,115.3357h-28.3003l-28.9535-76.6189-29.2901,76.6189h-28.3003ZM84.4209,148.7919l8.107-23.1695h29.95l8.4436,23.1695h-46.5006Z" fill="#4f46e5"/><path d="M190.1145,170.1366c-7.0633,0-13.0762-1.8449-18.0387-5.5416s-8.7466-8.7668-11.339-15.2241c-2.5923-6.4506-3.8851-13.763-3.8851-21.9238,0-9.1574,1.4881-16.8805,4.4642-23.1695,2.9829-6.289,7.0094-11.0898,12.0797-14.3959,5.077-3.3128,10.6454-4.9625,16.7189-4.9625,3.8582,0,7.6087.8282,11.2514,2.4779,3.636,1.6564,6.7805,4.3632,9.4334,8.1137,2.6462,3.7505,4.4104,8.8813,5.2924,15.3857l-4.4642-3.6427v-54.2709h24.8192v115.3357h-24.8192v-20.1866l5.1241-4.9692c-1.3197,7.6154-3.4744,13.3523-6.4506,17.2105-2.9761,3.8649-6.262,6.4573-9.8442,7.777-3.5889,1.3265-7.0364,1.9863-10.3424,1.9863ZM197.8915,147.3038c3.4138,0,6.3092-.8013,8.686-2.4038,2.3701-1.5958,4.1882-3.8851,5.4608-6.8613,1.2659-2.9829,1.9055-6.5112,1.9055-10.5916s-.6397-7.5885-1.9055-10.5108c-1.2726-2.9223-3.0906-5.1847-5.4608-6.7805-2.3769-1.6025-5.2722-2.4038-8.686-2.4038-3.3128,0-6.1812.7743-8.6052,2.3163-2.4307,1.5487-4.2757,3.7841-5.5483,6.7064-1.2659,2.9223-1.8988,6.4775-1.8988,10.6724s.6329,7.777,1.8988,10.7532c1.2726,2.9829,3.1175,5.2453,5.5483,6.7872,2.424,1.5419,5.2924,2.3163,8.6052,2.3163Z" fill="#4f46e5"/><path d="M283.7554,170.8032c-12.7934,0-23.2772-3.3128-31.4381-9.9317-8.1676-6.6189-13.1301-15.4463-14.8942-26.4756l25.3174-6.289c1.212,6.6189,3.7235,11.5612,7.5279,14.8134,3.8111,3.2522,8.5783,4.8817,14.3151,4.8817,2.8684,0,5.4338-.4444,7.6962-1.3265s4.0535-2.2085,5.38-3.9727c1.3197-1.7641,1.9863-3.8582,1.9863-6.289,0-2.2018-.6666-4.1612-1.9863-5.8715-1.3265-1.7103-3.4744-3.3667-6.4573-4.9625-2.9761-1.6025-6.9488-3.3397-11.9113-5.2184-7.8376-3.0839-14.2343-6.3698-19.1968-9.8442s-8.6052-7.474-10.9215-11.9989c-2.3163-4.5181-3.4744-9.7028-3.4744-15.5541,0-6.3967,1.5689-12.0527,4.7134-16.9613s7.5548-8.7668,13.2378-11.5814c5.683-2.8145,12.2749-4.2218,19.7759-4.2218,8.0531,0,15.1972,1.8517,21.4323,5.5416,6.2284,3.7033,11.2245,9.2988,14.975,16.7997l-20.6849,12.5779c-2.0941-3.8649-4.5518-6.8142-7.3663-8.8544-2.8078-2.0402-5.8715-3.0637-9.1843-3.0637-1.9863,0-3.8043.3905-5.4608,1.1581-1.6497.7743-2.9761,1.8517-3.9659,3.2253-.9965,1.3871-1.4948,3.0098-1.4948,4.8817,0,1.8786.5791,3.6427,1.7372,5.2992s3.2859,3.3397,6.3765,5.0433c3.0839,1.717,7.3865,3.6158,12.9011,5.7099,7.3932,2.7607,13.4869,5.7974,18.2878,9.1035,4.8009,3.3128,8.41,7.1441,10.8407,11.5006,2.424,4.3565,3.6427,9.5748,3.6427,15.6349,0,7.0633-1.7439,13.3253-5.2184,18.7861-3.4744,5.4608-8.3292,9.7364-14.5575,12.8271-6.2351,3.0839-13.5475,4.6326-21.9306,4.6326Z" fill="#4f46e5"/><path d="M365.6465,170.1366c-7.501,0-13.8977-1.1851-19.1901-3.5552-5.2992-2.3701-9.6018-5.5685-12.9079-9.595-3.3128-4.0266-5.7099-8.5514-7.198-13.5745-1.4948-5.0164-2.2355-10.1741-2.2355-15.4733,0-5.0702.7407-10.1472,2.2355-15.2241,1.4881-5.0702,3.8043-9.7028,6.9488-13.8977,3.1445-4.1882,7.2788-7.5548,12.4096-10.0933s11.3322-3.8043,18.6177-3.8043c6.3967,0,12.0191,1.0706,16.8805,3.2253,4.848,2.1479,8.9015,5.1578,12.1605,9.016,3.2522,3.8649,5.7099,8.4436,7.3663,13.7361,1.6497,5.2992,2.4779,11.0898,2.4779,17.3788,0,1.1043-.0269,2.2624-.0808,3.4744-.0606,1.212-.1953,2.7001-.4175,4.4642h-53.611c.6599,4.4171,2.727,7.6154,6.2014,9.6018,3.4811,1.9863,7.474,2.9761,11.9989,2.9761,3.9727,0,8.0531-.6868,12.248-2.0671,4.1882-1.3803,7.8309-3.2791,10.9215-5.7099l10.5916,17.5404c-4.3026,2.8684-8.2214,5.1578-11.7497,6.868-3.535,1.7103-7.1441,2.9223-10.8407,3.6427-3.6966.7137-7.9723,1.0706-12.8271,1.0706ZM378.7227,123.8044c.2222-.8821.4107-1.7641.5791-2.6462s.2491-1.7103.2491-2.4846c0-2.0941-.3905-3.939-1.1581-5.5416-.7743-1.5958-1.8517-2.9492-3.2253-4.0535-1.3871-1.1043-2.9559-1.9594-4.7201-2.5654s-3.6427-.909-5.6224-.909c-3.6427,0-6.5987.6599-8.8544,1.9863-2.2624,1.3197-3.9457,2.9223-5.05,4.7942-1.1043,1.8786-1.818,3.6966-2.1479,5.4608h38.2253l-8.2753,5.959Z" fill="#4f46e5"/><path d="M427.3376,170.1366c-5.959,0-10.9754-1.7911-15.0558-5.3732-4.0872-3.5889-6.1274-9.292-6.1274-17.1297V52.9829h24.8259v89.6884c0,1.6497.4646,2.8145,1.4073,3.4744.9359.6599,2.121.9898,3.5552.9898.8821,0,1.7372-.0808,2.5654-.2491.8282-.1616,1.6833-.3569,2.5654-.5791v21.1832c-2.5385.9965-4.9962,1.6833-7.3663,2.0671-2.3701.3905-4.4912.5791-6.3698.5791Z" fill="#4f46e5"/><path d="M463.4149,170.1366c-5.959,0-10.9754-1.7911-15.0558-5.3732-4.0872-3.5889-6.1274-9.292-6.1274-17.1297V52.9829h24.8259v89.6884c0,1.6497.4646,2.8145,1.4073,3.4744.9359.6599,2.121.9898,3.5552.9898.8821,0,1.7372-.0808,2.5654-.2491.8282-.1616,1.6833-.3569,2.5654-.5791v21.1832c-2.5385.9965-4.9962,1.6833-7.3663,2.0671-2.3701.3905-4.4912.5791-6.3698.5791Z" fill="#4f46e5"/><path d="M480.6389,168.3186v-23.4994h25.479v23.4994h-25.479Z" fill="#4f46e5"/><path d="M540.6398,170.1366c-5.8513,0-11.1706-1.1312-15.9715-3.3869-4.8009-2.2624-8.6052-5.4877-11.4198-9.6826s-4.2151-9.0429-4.2151-14.5643c0-4.7403,1.0167-8.8813,3.0569-12.4096s4.774-6.2284,8.1945-8.107c2.5317-1.4342,5.4002-2.4846,8.6052-3.1445,3.1983-.6666,6.6189-.9965,10.2549-.9965h24.496v18.3686h-20.8532c-1.3265,0-2.5115.1145-3.5552.3299-1.0504.2222-1.9594.6127-2.7337,1.1581-.7743.5589-1.3803,1.2457-1.818,2.0739-.4444.8282-.6599,1.7372-.6599,2.727,0,2.3163.9629,4.168,2.8953,5.5416,1.9257,1.3803,4.4912,2.0739,7.6895,2.0739,3.0906,0,5.9321-.6329,8.5244-1.9055,2.5923-1.2659,4.6595-3.0031,6.2082-5.2116,1.5419-2.2085,2.3163-4.7403,2.3163-7.6154l5.2924,14.066c-2.0941,5.6291-4.6056,9.9317-7.5279,12.9079-2.9223,2.9829-6.0129,5.0231-9.2651,6.1274-3.2589,1.0975-6.4304,1.6497-9.5142,1.6497ZM563.641,168.3186l-1.9863-9.595v-42.198c0-3.8649-1.3803-6.6189-4.141-8.2753-2.7539-1.6564-6.1745-2.4846-10.2549-2.4846-4.3026,0-8.8813.8013-13.7361,2.4038-4.8548,1.5958-8.9352,3.5552-12.248,5.8715l-10.5916-17.5404c6.5112-4.3026,12.8271-7.3057,18.9477-9.016,6.1274-1.7103,12.7126-2.5654,19.7759-2.5654,11.5814,0,20.658,2.8415,27.223,8.5177,6.5583,5.683,9.8442,13.3792,9.8442,23.0887v51.793h-22.8328Z" fill="#4f46e5"/><path d="M592.2847,75.4858v-22.5029h25.4858v22.5029h-25.4858ZM592.4531,168.3186v-81.5814h24.9875v81.5814h-24.9875Z" fill="#4f46e5"/></svg>