<?xml version="1.0" encoding="UTF-8"?><svg id="a" xmlns="http://www.w3.org/2000/svg" viewBox="0 0 179.2844 34.9644"><g id="b"><rect width="179.2844" height="34.9541" fill="#ccc" opacity=".85"/><path d="M32.7234,23.3805L43.7995,3.6714l.9755-1.7346c-.241.7977-.5567,1.3802-.8376,2.1405l-7.1779,19.4487,9.7063-16.8378,2.0567-3.6392.0812.0451-6.7166,14.2824-8.3944,17.5879-16.9873-.0103,2.0606-4.3686L8.4859,12.7115c.5773,2.4652,1.5554,4.5426,2.3338,6.8107l3.241,9.0942,1.3712,3.7062-.1224.1108-4.6199-9.6715L0,0l17.1175.6276,7.7578,16.4074,2.8686-5.9833,3.665-7.8248.134.0941-1.2938,3.5877-4.223,12.0633c-.1031.2925.0799.7217.3286,1.0142l6.8171-12.1419,2.924-5.2359c-.4008,1.5335-.9833,2.7913-1.5181,4.2269l-5.8081,15.5505.1456.1817L40.2802,2.6972l-6.6161,17.9513c-.2333.2487-.3363.5039-.3711.8028-.1946.6443-.5193,1.1379-.5683,1.9291h-.0013ZM24.1073,18.6394c-1.2384-2.1405-2.2552-4.2153-3.6779-6.3326l2.9008,7.9434.7771-1.6108h0ZM20.2284,27.0055c.0735-.1508.0619-.4987-.0425-.6843l-7.8068-13.8404-.1469.0954,6.5581,17.3404,1.4382-2.9124h0v.0013ZM22.2722,22.6214l-5.8777-10.2231,4.6921,12.6587,1.1843-2.4356h.0013ZM8.3197,12.6703l-.076.0026.076.0026h.0773l.076-.0026-.076-.0026h-.0773ZM25.3238,20.9732l-.116.2552-.607,1.7346c1.3402-1.5567.9266-2.4356.7242-1.991h0l-.0013.0013ZM28.7323,22.4642l-.3518.8144c.3144-.1675.4523-.2874.3518-.8144Z" fill="#064c92"/></g><path d="M48.6037,9.0905h4.9131v2.0576h-1.3223l3.6953,13.6484,3.6953-13.6484h-1.3027v-2.0576h4.6826v2.0576h-1.3018l-4.6406,16.1748h-2.3516l-4.6602-16.1748h-1.4072v-2.0576Z"/><path d="M64.0051,9.0905h4.9121v2.0576h-1.4688v14.1172h1.4688v2.0576h-4.9121v-2.0576h1.4688v-14.1172h-1.4688v-2.0576Z"/><path d="M79.7727,14.2995c-.127-2.3184-2.0586-3.6982-3.7793-3.6982-2.0371,0-3.1504,1.1719-3.1504,3.0469,0,2.2139,1.7432,2.5791,3.6748,3.0479,2.624.625,5.6064,1.5371,5.6064,5.6777,0,5.1836-4.0742,5.4961-5.291,5.4961-1.2598,0-3.6543-.3643-4.7246-2.4219v1.875h-1.5537v-6.1211h1.6592c.041,2.2666,1.5957,4.6104,4.1992,4.6104s3.6113-1.6406,3.6113-3.3857c0-2.2402-1.5957-2.8398-2.9609-3.2041-3.3594-.9111-6.3203-1.3281-6.3203-5.5215,0-3.4385,2.0156-5.1572,5.2285-5.1572,1.5742,0,3.1074.8066,3.9473,2.1875v-1.6406h1.5117v5.209h-1.6582Z"/><path d="M83.3957,9.0905h4.9141v2.0576h-1.4707v14.1172h1.4707v2.0576h-4.9141v-2.0576h1.4707v-14.1172h-1.4707v-2.0576Z"/><path d="M96.4445,8.5436c3.2539,0,7.0117,2.2393,7.0117,9.6631,0,9.5332-6.1094,9.6631-7.0117,9.6631-.9668,0-7.0137-.1299-7.0137-9.6631,0-6.3818,2.9189-9.6631,7.0137-9.6631ZM96.4445,25.8122c1.0078,0,4.9121-.2607,4.9121-7.6055,0-4.2979-1.5322-7.6055-4.9121-7.6055-4.4941,0-4.9141,5.626-4.9141,7.6055,0,2.9434.7148,7.6055,4.9141,7.6055Z"/><path d="M114.5246,9.0905h4.9121v2.0576h-1.4688v16.1748h-2.1631l-7.7471-14.5859v12.5283h1.4688v2.0576h-4.9121v-2.0576h1.4688v-14.1172h-1.4688v-2.0576h3.6523l7.7266,14.5859v-12.5283h-1.4688v-2.0576Z"/><path d="M125.802,9.0905h6.7617c1.5117,0,7.1172.3125,7.1172,9.0645,0,8.8555-5.3535,9.168-7.8525,9.168h-6.0264v-2.0576h1.4707v-14.1172h-1.4707v-2.0576ZM129.2453,25.2653h2.6465c3.7793,0,5.6895-2.292,5.6895-7.0586,0-5.418-2.625-7.0586-5.123-7.0586h-3.2129v14.1172Z"/><path d="M149.5168,25.2653h1.3643l-.7764-2.6572h-6.2148l-.7773,2.6572h1.3438v2.0576h-4.8291v-2.0576h1.4697l4.3047-14.1172h-1.6387v-2.0576h4.3672l4.9346,16.1748h1.3857v2.0576h-4.9336v-2.0576ZM149.5578,20.5505l-2.5605-9.0117-2.5625,9.0117h5.123Z"/><path d="M156.9992,25.2653h1.4697v-14.1172h-3.8428v4.4541h-1.6582v-6.5117h12.9756v6.5117h-1.6592v-4.4541h-3.8418v14.1172h1.4697v2.0576h-4.9131v-2.0576Z"/><path d="M174.3508,25.2653h1.3643l-.7764-2.6572h-6.2148l-.7773,2.6572h1.3438v2.0576h-4.8291v-2.0576h1.4697l4.3047-14.1172h-1.6387v-2.0576h4.3672l4.9346,16.1748h1.3857v2.0576h-4.9336v-2.0576ZM174.3918,20.5505l-2.5605-9.0117-2.5625,9.0117h5.123Z"/></svg>