<?xml version="1.0" encoding="UTF-8"?><svg id="a" xmlns="http://www.w3.org/2000/svg" viewBox="0 0 296.19 362.56"><path d="M122.87.02l30.19.03c5.74,0,13.45-.14,19.07.28,20.46,1.33,39.93,9.16,55.45,22.31,15.63,13.3,26.27,31.36,30.22,51.3,1.56,7.8,2.09,16.01,1.86,23.94-.47,15.88,1.07,32.12-1.06,47.89-2.36,17.51-9.89,33.72-21.59,47.11-15.8,17.85-37.86,29.22-61.8,31.85-7.06.75-13.79.35-20.9.33l-33.28-.02c-5.3,0-15.08-.27-20.08.14l-.32.03v-54.56s43.54.02,43.54.02c8.37.01,18.44.29,26.6-.39,9.99-1.19,18.68-7.1,24.79-14.42,10.54-12.2,8.83-28.8,9.07-43.74.12-7.59.07-15.96-.76-23.56-1.2-10.92-6.84-20.28-15.74-26.96-5.2-3.84-11.31-6.33-17.75-7.23-6.19-.86-19.74-.47-26.66-.47h-48.62s-41.52-.02-41.52-.02h-12.49c-2.41-.01-5.88-.09-8.19.21l.03-54c9.46-.17,19.59,0,29.13,0l60.81-.06h0Z" fill="#10233f"/><path d="M32.93,66.61c1.08.11,2.26.12,3.35.13,17.17.12,34.38-.19,51.55,0-.21,3.98-.03,9.9-.04,14.04v29.87s.07,74.27.07,74.27c.02,13.2.27,27.05.01,40.17-10.85-.17-22.04-.04-32.92-.05-6.52,0-15.71-.26-22.03.16V66.61s0,0,0,0Z" fill="#10233f"/><path d="M0,266.88h21.96c14.26,0,23.83,10.3,23.83,26.07,0,9.07-3.17,16.34-8.93,20.74-4.03,3.02-9.22,4.68-15.7,4.68H0v-51.48ZM20.23,307.63c8.35,0,12.67-5.26,12.67-14.69s-4.54-15.41-12.53-15.41h-7.63v30.1h7.49Z" fill="#10233f"/><path d="M46.93,299.86c0-11.02,7.71-19.44,18.94-19.44,5.26,0,9.43,1.73,12.6,4.61,4.39,4.03,6.55,10.44,6.48,17.93h-26.5c.72,4.97,3.46,8.06,8.28,8.06,3.1,0,5.11-1.37,6.12-3.67h11.45c-.79,3.31-2.95,6.48-6.19,8.71-3.1,2.16-6.84,3.38-11.52,3.38-12.17,0-19.66-8.42-19.66-19.59ZM73.07,295.97c-.43-4.39-3.17-7.2-6.98-7.2-4.46,0-6.77,2.81-7.56,7.2h14.55Z" fill="#10233f"/><path d="M87.34,281.49h11.23v5.26h.22c2.3-3.82,5.83-6.34,11.16-6.34,4.82,0,8.5,2.52,10.37,6.48h.14c2.88-4.46,6.84-6.48,11.59-6.48,8.35,0,12.53,5.69,12.53,13.97v23.98h-11.74v-21.89c0-3.96-1.66-6.26-5.18-6.26-3.74,0-5.83,3.1-5.83,7.49v20.67h-11.74v-21.89c0-3.96-1.66-6.26-5.18-6.26s-5.83,3.1-5.83,7.49v20.67h-11.74v-36.87Z" fill="#10233f"/><path d="M148.74,281.49h11.23v4.46h.22c2.52-3.31,6.12-5.54,11.16-5.54,9.79,0,15.77,8.42,15.77,19.51,0,11.95-6.41,19.59-16.06,19.59-4.75,0-8.14-1.87-10.44-4.97h-.14v15.99h-11.74v-49.04ZM175.24,300.36c0-6.34-2.38-10.51-7.42-10.51s-7.71,4.54-7.71,10.51,2.88,10.08,7.92,10.08c4.46,0,7.2-3.82,7.2-10.08Z" fill="#10233f"/><path d="M187.38,306.41h11.09c.43,3.67,2.88,5.47,6.77,5.47,3.53,0,5.76-1.3,5.76-3.67,0-3.31-4.46-3.67-9.36-4.54-6.41-1.08-13.25-2.81-13.25-11.45,0-7.78,7.2-11.81,15.91-11.81,10.44,0,16.06,4.54,16.63,11.81h-10.8c-.43-3.31-2.66-4.32-5.9-4.32-2.88,0-5.11,1.08-5.11,3.38,0,2.59,4.18,2.95,8.86,3.82,6.48,1.08,14.11,2.74,14.11,12.17,0,8.06-7.13,12.24-16.78,12.24-10.8,0-17.57-4.97-17.93-13.11Z" fill="#10233f"/><path d="M222.49,299.86c0-11.02,7.71-19.44,18.94-19.44,5.26,0,9.43,1.73,12.6,4.61,4.39,4.03,6.55,10.44,6.48,17.93h-26.5c.72,4.97,3.46,8.06,8.28,8.06,3.1,0,5.11-1.37,6.12-3.67h11.45c-.79,3.31-2.95,6.48-6.19,8.71-3.1,2.16-6.84,3.38-11.52,3.38-12.17,0-19.66-8.42-19.66-19.59ZM248.63,295.97c-.43-4.39-3.17-7.2-6.98-7.2-4.46,0-6.77,2.81-7.56,7.2h14.54Z" fill="#10233f"/><path d="M261.92,321.39h4.03c3.46,0,4.82-1.37,4.82-3.89,0-1.58-.72-3.74-2.23-7.63l-10.87-28.37h12.38l4.97,15.7c1.15,3.6,2.3,8.5,2.3,8.5h.14s1.01-4.9,2.16-8.5l4.82-15.7h11.74l-12.75,37.37c-2.95,8.64-6.48,11.67-13.9,11.67h-7.63v-9.14Z" fill="#10233f"/><path d="M16.32,339.17h5.82l8.26,22.88h-5.95l-1.34-4.13h-8l-1.31,4.13h-5.7l8.22-22.88ZM21.79,353.86l-1.73-5.54c-.38-1.18-.9-3.23-.9-3.23h-.06s-.54,2.05-.93,3.23l-1.76,5.54h5.38Z" fill="#10233f"/><path d="M62.53,359.36c-1.98-2.18-3.07-5.18-3.07-8.67s1.22-6.75,3.39-8.93c1.89-1.92,4.54-3.04,7.84-3.04,5.89,0,9.41,3.14,10.14,7.94h-5.5c-.42-1.86-1.95-3.26-4.45-3.26-3.78,0-5.66,3.14-5.66,7.29s2.18,7.3,5.76,7.3c2.98,0,4.74-1.98,4.96-4v-.06h-4.29v-4.16h9.54v12.29h-3.97l-.32-2.75h-.06c-1.5,2.34-3.74,3.26-6.5,3.26-3.26,0-5.92-1.15-7.81-3.2Z" fill="#10233f"/><path d="M113.74,339.17h17.34v4.67h-11.68v4.1h10.02v4.42h-10.02v4.9h11.87v4.8h-17.53v-22.88Z" fill="#10233f"/><path d="M163.5,339.17h5.7l6.78,11.49c.35.64,1.57,2.91,1.57,2.91h.06s-.06-2.75-.06-3.55v-10.85h5.54v22.88h-5.7l-6.72-11.33c-.38-.61-1.63-3.07-1.63-3.07h-.06s.06,2.94.06,3.74v10.66h-5.54v-22.88Z" fill="#10233f"/><path d="M214.91,350.69c0-6.82,4.45-11.97,11.26-11.97,2.66,0,4.9.77,6.53,2.02,1.98,1.5,3.14,3.74,3.42,6.3h-5.66c-.29-2.05-1.89-3.62-4.32-3.62-3.71,0-5.47,3.1-5.47,7.26s2.11,7.23,5.5,7.23c2.53,0,4.19-1.6,4.45-3.81h5.66c-.16,2.27-1.18,4.35-2.75,5.86-1.76,1.7-4.1,2.59-7.33,2.59-6.72,0-11.3-5.02-11.3-11.87Z" fill="#10233f"/><path d="M272.76,353.6l-7.74-14.43h6.18l2.94,5.92c.77,1.57,1.5,3.49,1.5,3.49h.06s.8-1.92,1.57-3.49l2.91-5.92h5.98l-7.74,14.43v8.45h-5.66v-8.45Z" fill="#10233f"/></svg>