<?xml version="1.0" encoding="UTF-8"?><svg id="a" xmlns="http://www.w3.org/2000/svg" viewBox="0 0 292.721 391.8"><defs><style>.b{fill:#10233f;}</style></defs><path class="b" d="M116.086.03l38.957.033c7.412.012,17.359-.181,24.609.355,26.405,1.717,51.523,11.823,71.552,28.791,20.174,17.166,33.904,40.47,38.989,66.191,2.007,10.062,2.694,20.66,2.395,30.89-.604,20.485,1.377,41.446-1.371,61.795-3.049,22.59-12.756,43.507-27.853,60.786-20.384,23.031-48.847,37.702-79.746,41.097-9.115.965-17.8.45-26.965.432l-42.941-.027c-6.838,0-19.455-.349-25.917.178l-.409.036v-43.516l-.015-26.891,56.2.027c10.802.018,23.797.379,34.327-.503,12.886-1.536,24.108-9.168,31.983-18.608,13.599-15.749,11.391-37.169,11.708-56.44.16-9.792.095-20.591-.983-30.402-1.548-14.085-8.827-26.169-20.316-34.789-6.708-4.955-14.588-8.167-22.9-9.331-7.987-1.116-25.467-.607-34.395-.604l-62.734-.006-53.575-.015-16.113-.018c-3.105,0-7.581-.104-10.574.287L.033.098c12.211-.225,25.283.009,37.589,0L116.092.024l-.006.006Z"/><path class="b" d="M.027,85.945c1.388.136,2.922.16,4.322.169,22.16.151,44.365-.246,66.523.006-.266,5.13-.041,12.771-.053,18.114l.006,38.545.08,95.829c.024,17.027.349,34.907.018,51.834-14.005-.216-28.445-.053-42.477-.062-8.413-.003-20.272-.335-28.424.204l.009-204.639h-.003Z"/><path class="b" d="M6.378,373.102h3.842l6.455,18.314h-3.868l-1.229-3.893h-6.608l-1.204,3.893H0l6.378-18.314ZM5.84,384.679h4.841l-1.639-5.276c-.307-.973-.743-2.817-.743-2.817h-.051s-.461,1.844-.769,2.817c0,0-1.639,5.276-1.639,5.276Z"/><path class="b" d="M68.871,388.957h-.051c-1.255,2.1-2.971,2.843-5.148,2.843-2.766,0-4.918-.999-6.429-2.664-1.511-1.69-2.382-4.047-2.382-6.813,0-3.048,1.076-5.712,2.997-7.479,1.486-1.358,3.432-2.1,5.891-2.1,4.611,0,7.249,2.536,7.838,6.122h-3.637c-.41-1.767-1.767-3.048-4.124-3.048-3.458,0-5.174,2.869-5.174,6.506,0,3.74,1.972,6.48,5.123,6.48,2.843,0,4.713-2.126,4.713-4.149v-.102h-4.406v-2.869h7.71v9.733h-2.792l-.128-2.459h0Z"/><path class="b" d="M112.937,373.102h13.473v3.125h-9.759v4.098h8.555v3.048h-8.555v4.944h9.836v3.099h-13.55v-18.314h0Z"/><path class="b" d="M167.141,373.102h3.765l6.096,10.22c.589.999,1.281,2.561,1.281,2.561h.051s-.102-1.896-.102-3.176v-9.605h3.663v18.314h-3.586l-6.25-10.118c-.589-.973-1.306-2.536-1.306-2.536h-.052s.102,1.921.102,3.202v9.451h-3.663v-18.314h0Z"/><path class="b" d="M222.367,382.323c0-5.43,3.381-9.58,8.786-9.58,4.508,0,7.172,2.689,7.556,6.173h-3.688c-.333-1.844-1.716-3.048-3.867-3.048-3.381,0-4.995,2.817-4.995,6.455,0,3.74,1.947,6.429,5.02,6.429,2.177,0,3.714-1.306,3.945-3.227h3.638c-.102,1.614-.794,3.176-2.024,4.329-1.255,1.178-3.023,1.947-5.558,1.947-5.148,0-8.811-3.97-8.811-9.477h0Z"/><path class="b" d="M282.911,384.346l-6.096-11.245h4.047l2.766,5.43c.563,1.101,1.204,2.613,1.204,2.613h.051s.692-1.511,1.23-2.613l2.715-5.43h3.893l-6.096,11.245v7.069h-3.714v-7.069h0Z"/><path class="b" d="M0,309.793h21.695c14.084,0,23.544,10.172,23.544,25.749,0,8.962-3.13,16.146-8.82,20.485-3.983,2.987-9.105,4.623-15.506,4.623H0v-50.858ZM20.236,350.337c8.291,0,12.579-5.217,12.579-14.58,0-9.291-4.503-15.295-12.436-15.295h-7.576v29.875h7.433,0Z"/><path class="b" d="M46.746,342.705c0-10.704,7.486-18.89,18.401-18.89,5.107,0,9.165,1.679,12.244,4.478,4.268,3.918,6.367,10.145,6.297,17.421h-25.747c.7,4.828,3.358,7.836,8.046,7.836,3.008,0,4.967-1.329,5.947-3.568h11.124c-.77,3.218-2.869,6.297-6.017,8.466-3.008,2.099-6.647,3.288-11.194,3.288-11.824,0-19.1-8.186-19.1-19.03h0ZM72.258,338.601c-.427-4.339-3.13-7.113-6.9-7.113-4.41,0-6.686,2.774-7.469,7.113h14.368Z"/><path class="b" d="M86.423,324.375h11.025v4.979h.224c2.276-3.566,5.762-6.056,11.025-6.056,4.765,0,10.242,6.412,10.242,6.412h.312c2.832-4.39,6.726-6.373,11.4-6.373,8.213,0,12.32,5.594,12.32,13.736v23.578h-11.736v-21.623c0-3.912-1.657-6.188-5.188-6.188-3.747,0-5.837,3.059-5.837,7.397v20.414h-11.381v-21.623c0-3.912-1.657-6.188-5.188-6.188-3.675,0-5.837,3.059-5.837,7.397v20.414h-11.381v-36.276h0Z"/><path class="b" d="M146.883,324.375h11.381v4.623h.067c2.49-3.495,6.046-5.7,11.025-5.7,9.674,0,15.577,8.322,15.577,19.276,0,11.808-6.331,19.347-15.862,19.347-4.694,0-8.038-1.849-10.313-4.826h-.139v15.649h-11.736v-48.368h0ZM173.197,343.001c0-6.259-2.347-10.385-7.326-10.385-5.05,0-7.611,4.481-7.611,10.385s2.845,9.958,7.824,9.958c4.41,0,7.113-3.77,7.113-9.958Z"/><path class="b" d="M185.364,348.915h10.843c.423,3.591,2.816,5.351,6.618,5.351,3.45,0,5.633-1.268,5.633-3.591,0-3.239-4.366-3.591-9.153-4.436-6.266-1.056-12.955-2.746-12.955-11.195,0-7.604,7.04-11.547,15.56-11.547,10.209,0,15.701,4.436,16.264,11.547h-10.561c-.423-3.239-2.605-4.224-5.773-4.224-2.816,0-4.999,1.056-4.999,3.309,0,2.535,4.084,2.887,8.66,3.731,6.337,1.056,13.8,2.676,13.8,11.899,0,7.885-6.97,11.969-16.405,11.969-10.561,0-17.18-4.858-17.532-12.814h0Z"/><path class="b" d="M220.188,342.705c0-10.704,7.486-18.89,18.401-18.89,5.107,0,9.165,1.679,12.244,4.478,4.268,3.918,6.366,10.145,6.297,17.421h-25.747c.7,4.828,3.358,7.836,8.046,7.836,3.008,0,4.967-1.329,5.947-3.568h11.124c-.769,3.218-2.868,6.297-6.017,8.466-3.008,2.099-6.647,3.288-11.194,3.288-11.824,0-19.1-8.186-19.1-19.03h0ZM245.699,338.601c-.427-4.339-3.13-7.113-6.899-7.113-4.41,0-6.686,2.774-7.469,7.113h14.368Z"/><path class="b" d="M258.912,363.852h3.99c3.421,0,4.775-1.354,4.775-3.848,0-1.568-.713-3.706-2.209-7.553l-10.76-28.076h12.181l4.893,15.46c1.135,3.546,2.269,8.368,2.269,8.368h.142s.993-4.823,2.127-8.368l4.751-15.46h11.648l-12.571,36.862c-2.912,8.523-6.392,11.506-13.708,11.506h-7.528v-8.891h0Z"/></svg>