<?xml version="1.0" encoding="UTF-8"?><svg id="a" xmlns="http://www.w3.org/2000/svg" viewBox="0 0 823.061 230.583"><defs><style>.b{fill:#0b132b;}</style></defs><path class="b" d="M17.933,178.008h10.803l18.149,51.494h-10.875l-3.457-10.947H13.972l-3.385,10.947H0l17.933-51.494ZM16.421,210.562h13.612l-4.609-14.836c-.864-2.737-2.089-7.922-2.089-7.922h-.144s-1.296,5.185-2.161,7.922l-4.609,14.836Z"/><path class="b" d="M193.648,222.589h-.144c-3.529,5.905-8.354,7.994-14.476,7.994-7.778,0-13.828-2.809-18.077-7.49-4.249-4.753-6.698-11.379-6.698-19.157,0-8.57,3.025-16.061,8.426-21.03,4.178-3.817,9.651-5.906,16.565-5.906,12.964,0,20.382,7.13,22.038,17.213h-10.227c-1.152-4.969-4.969-8.57-11.595-8.57-9.723,0-14.548,8.066-14.548,18.293,0,10.515,5.545,18.221,14.404,18.221,7.994,0,13.252-5.978,13.252-11.667v-.288h-12.388v-8.066h21.678v27.368h-7.851l-.36-6.914Z"/><path class="b" d="M317.551,178.008h37.883v8.786h-27.44v11.523h24.054v8.57h-24.054v13.9h27.656v8.715h-38.099v-51.494Z"/><path class="b" d="M469.96,178.008h10.587l17.141,28.736c1.657,2.809,3.601,7.202,3.601,7.202h.144s-.288-5.33-.288-8.93v-27.008h10.299v51.494h-10.082l-17.574-28.448c-1.657-2.737-3.673-7.13-3.673-7.13h-.145s.288,5.402.288,9.003v26.575h-10.299v-51.494Z"/><path class="b" d="M625.244,203.936c0-15.269,9.507-26.936,24.703-26.936,12.675,0,20.165,7.562,21.245,17.357h-10.371c-.936-5.185-4.825-8.57-10.874-8.57-9.507,0-14.045,7.922-14.045,18.149,0,10.515,5.474,18.077,14.116,18.077,6.122,0,10.443-3.673,11.091-9.074h10.228c-.288,4.537-2.233,8.93-5.69,12.171-3.529,3.313-8.499,5.474-15.629,5.474-14.475,0-24.774-11.163-24.774-26.647Z"/><path class="b" d="M795.477,209.625l-17.141-31.617h11.379l7.778,15.268c1.584,3.097,3.385,7.346,3.385,7.346h.144s1.945-4.249,3.458-7.346l7.633-15.268h10.947l-17.141,31.617v19.877h-10.442v-19.877Z"/><path class="b" d="M0,0h61c39.6,0,66.2,28.6,66.2,72.4,0,25.2-8.8,45.4-24.8,57.6-11.2,8.4-25.6,13-43.6,13H0V0ZM56.9,114c23.311,0,35.368-14.67,35.368-40.995,0-26.124-12.66-43.005-34.966-43.005h-21.301v84h20.9Z"/><path class="b" d="M131.438,92.541c0-30.098,21.05-53.115,51.739-53.115,14.361,0,25.77,4.721,34.427,12.59,12,11.016,17.902,28.525,17.705,48.984h-72.394c1.967,13.574,9.442,22.033,22.623,22.033,8.459,0,13.967-3.738,16.721-10.033h31.279c-2.164,9.049-8.066,17.705-16.918,23.804-8.459,5.902-18.689,9.246-31.476,9.246-33.247,0-53.706-23.017-53.706-53.509ZM203.172,81c-1.2-12.2-8.8-20-19.4-20-12.399,0-18.799,7.8-21,20h40.399Z"/><path class="b" d="M243,41h31v14h.631c6.4-10.028,16.2-17.028,31-17.028,13.399,0,28.799,18.028,28.799,18.028h.876c7.964-12.343,18.913-17.918,32.053-17.918,23.094,0,34.641,15.728,34.641,38.622v66.296h-33v-60.799c0-11-4.66-17.4-14.588-17.4-10.536,0-16.412,8.6-16.412,20.8v57.399h-32v-60.799c0-11-4.66-17.4-14.588-17.4-10.333,0-16.412,8.6-16.412,20.8v57.399h-32V41Z"/><path class="b" d="M413,41h32v13h.189c7-9.828,17-16.028,30.999-16.028,27.2,0,43.8,23.4,43.8,54.199,0,33.2-17.8,54.399-44.6,54.399-13.199,0-22.6-5.2-28.999-13.57h-.39v44h-33V41ZM486.989,93.371c0-17.6-6.6-29.2-20.6-29.2-14.199,0-21.399,12.6-21.399,29.2s8,28,22,28c12.399,0,19.999-10.6,19.999-28Z"/><path class="b" d="M521.198,110h30.488c1.188,10.097,7.919,15.046,18.609,15.046,9.7,0,15.838-3.564,15.838-10.097,0-9.106-12.275-10.096-25.736-12.472-17.619-2.97-36.426-7.721-36.426-31.477,0-21.381,19.796-32.467,43.751-32.467,28.705,0,44.147,12.472,45.731,32.467h-29.696c-1.188-9.106-7.324-11.878-16.233-11.878-7.919,0-14.056,2.97-14.056,9.305,0,7.127,11.482,8.117,24.35,10.492,17.818,2.97,38.802,7.523,38.802,33.457,0,22.172-19.598,33.655-46.126,33.655-29.696,0-48.305-13.66-49.295-36.031Z"/><path class="b" d="M619.115,92.541c0-30.098,21.049-53.115,51.738-53.115,14.361,0,25.771,4.721,34.427,12.59,12,11.016,17.901,28.525,17.705,48.984h-72.395c1.967,13.574,9.442,22.033,22.623,22.033,8.459,0,13.967-3.738,16.722-10.033h31.278c-2.163,9.049-8.065,17.705-16.918,23.804-8.459,5.902-18.689,9.246-31.476,9.246-33.246,0-53.705-23.017-53.705-53.509ZM690.848,81c-1.2-12.2-8.8-20-19.399-20-12.4,0-18.8,7.8-21,20h40.399Z"/><path class="b" d="M728,152h11.22c9.618,0,13.425-3.807,13.425-10.819,0-4.408-2.004-10.419-6.211-21.238l-30.254-78.942h34.249l13.759,43.47c3.19,9.97,6.38,23.53,6.38,23.53h.399s2.792-13.56,5.982-23.53l13.36-43.47h32.752l-35.348,103.648c-8.188,23.965-17.974,32.352-38.544,32.352h-21.168v-25Z"/></svg>