<?xml version="1.0" encoding="UTF-8"?><svg id="a" xmlns="http://www.w3.org/2000/svg" viewBox="0 0 800 1102.5559"><defs><style>.b{fill:#10233f;}</style></defs><path class="b" d="M0,839.2512h59.2908c38.4907,0,64.3454,27.7987,64.3454,70.3715,0,24.494-8.5534,44.128-24.1053,55.9861-10.8861,8.1647-24.8827,12.6359-42.3782,12.6359H0v-138.9935ZM55.3054,950.0572c22.6578,0,34.3771-14.2591,34.3771-39.8469,0-25.3923-12.3053-41.7997-33.9865-41.7997h-20.7046v81.6465h20.314Z"/><path class="b" d="M127.7557,929.1991c0-29.2549,20.4598-51.6269,50.289-51.6269,13.9583,0,25.0483,4.589,33.462,12.2375,11.6638,10.7077,17.4002,27.7256,17.2088,47.6117h-70.3655c1.9117,13.1936,9.1779,21.4154,21.9892,21.4154,8.2218,0,13.5759-3.6329,16.2527-9.7516h30.4029c-2.1035,8.7956-7.84,17.2093-16.4441,23.1366-8.2223,5.7364-18.1654,8.987-30.5938,8.987-32.315,0-52.2011-22.372-52.2011-52.0097ZM197.479,917.9818c-1.1666-11.8579-8.5533-19.4392-18.8564-19.4392-12.052,0-18.2726,7.5813-20.4112,19.4392h39.2675Z"/><path class="b" d="M236.1918,879.1025h30.1315v13.6078h.6137c6.2206-9.7474,15.7458-16.5512,30.131-16.5512,13.024,0,27.9924,17.5232,27.9924,17.5232h.8517c7.7404-11.9975,18.3835-17.4159,31.1549-17.4159,22.4469,0,33.6701,15.2871,33.6701,37.5403v64.4381h-32.0754v-59.0954c0-10.6918-4.5293-16.9124-14.1793-16.9124-10.241,0-15.9521,8.3587-15.9521,20.217v55.7908h-31.1034v-59.0954c0-10.6918-4.5297-16.9124-14.1796-16.9124-10.0437,0-15.9519,8.3587-15.9519,20.217v55.7908h-31.1034v-99.1422Z"/><path class="b" d="M401.4288,879.1025h31.1034v12.6358h.1841c6.8039-9.5528,16.5237-15.5792,30.1305-15.5792,26.4381,0,42.5726,22.7443,42.5726,52.6807,0,32.2695-17.3011,52.8753-43.35,52.8753-12.8294,0-21.9664-5.0545-28.1865-13.1901h-.3787v42.7672h-32.0754v-132.1896ZM473.3441,930.0063c0-17.107-6.4147-28.3816-20.0225-28.3816-13.8014,0-20.7999,12.2466-20.7999,28.3816s7.7759,27.215,21.3836,27.215c12.052,0,19.4387-10.3031,19.4387-27.215Z"/><path class="b" d="M506.595,946.1693h29.6334c1.1547,9.8139,7.697,14.6245,18.0878,14.6245,9.4287,0,15.3941-3.4638,15.3941-9.8139,0-8.8513-11.9308-9.8134-25.0154-12.1225-17.1257-2.8864-35.4052-7.5044-35.4052-30.5955,0-20.7816,19.2416-31.5572,42.5254-31.5572,27.9008,0,42.9096,12.1225,44.4496,31.5572h-28.8639c-1.1547-8.8513-7.1192-11.5451-15.7784-11.5451-7.697,0-13.6624,2.8864-13.6624,9.0439,0,6.927,11.1603,7.8892,23.668,10.1982,17.3183,2.8864,37.7147,7.3123,37.7147,32.5198,0,21.5511-19.049,32.7119-44.8339,32.7119-28.8639,0-46.9517-13.2772-47.9138-35.0214Z"/><path class="b" d="M601.769,929.1991c0-29.2549,20.4594-51.6269,50.288-51.6269,13.9583,0,25.0493,4.589,33.4625,12.2375,11.6633,10.7077,17.3998,27.7256,17.2093,47.6117h-70.3665c1.9121,13.1936,9.1779,21.4154,21.9896,21.4154,8.2218,0,13.5755-3.6329,16.2532-9.7516h30.402c-2.1026,8.7956-7.839,17.2093-16.4437,23.1366-8.2218,5.7364-18.1654,8.987-30.5943,8.987-32.3141,0-52.2002-22.372-52.2002-52.0097ZM671.4919,917.9818c-1.1666-11.8579-8.5533-19.4392-18.8559-19.4392-12.053,0-18.2731,7.5813-20.4116,19.4392h39.2675Z"/><path class="b" d="M707.6033,986.9925h10.9053c9.3486,0,13.0487-3.7001,13.0487-10.5163,0-4.2844-1.9475-10.1269-6.0375-20.6432l-29.4065-76.7305h33.2892l13.3734,42.252c3.1004,9.691,6.2017,22.8709,6.2017,22.8709h.388s2.7133-13.1799,5.8146-22.8709l12.9854-42.252h31.8345l-34.3577,100.7437c-7.9589,23.2932-17.4703,31.4459-37.4637,31.4459h-20.5754v-24.2996Z"/><path class="b" d="M24.1712,1032.538h14.3871l24.17,68.5789h-14.4829l-4.6036-14.5788h-24.7462l-4.5078,14.5788H.2883l23.8829-68.5789ZM22.157,1075.8919h18.1274l-6.1385-19.7586c-1.1509-3.6449-2.7812-10.5504-2.7812-10.5504h-.1922s-1.7261,6.9054-2.877,10.5504l-6.1385,19.7586Z"/><path class="b" d="M198.8238,1091.9087h-.1917c-4.7,7.8651-11.1261,10.6472-19.2788,10.6472-10.3586,0-18.4155-3.7408-24.0746-9.9752-5.6587-6.3302-8.9196-15.155-8.9196-25.5136,0-11.4132,4.0279-21.3884,11.2215-28.0062,5.5633-5.0839,12.8527-7.8651,22.0604-7.8651,17.2646,0,27.1438,9.4949,29.3498,22.9232h-13.6201c-1.5344-6.6178-6.6178-11.4142-15.4421-11.4142-12.9481,0-19.3746,10.7431-19.3746,24.3622,0,14.0036,7.3857,24.2663,19.1829,24.2663,10.6467,0,17.648-7.961,17.648-15.5375v-.3844h-16.4971v-10.7421h28.8704v36.4474h-10.455l-.4793-9.2082Z"/><path class="b" d="M304.4757,1032.538h50.4505v11.7018h-36.5428v15.3467h32.0351v11.4132h-32.0351v18.5113h36.8309v11.6059h-50.7386v-68.5789Z"/><path class="b" d="M448.0904,1032.538h14.0985l22.8283,38.2699c2.2059,3.7408,4.7954,9.5917,4.7954,9.5917h.1917s-.3835-7.0981-.3835-11.8935v-35.9681h13.716v68.5789h-13.4284l-23.4026-37.8864c-2.2069-3.644-4.8922-9.4949-4.8922-9.4949h-.1917s.3835,7.1931.3835,11.9894v35.3919h-13.715v-68.5789Z"/><path class="b" d="M595.5308,1067.0671c0-20.3338,12.6605-35.8713,32.8984-35.8713,16.8806,0,26.8558,10.071,28.2948,23.115h-13.8118c-1.2463-6.9054-6.4261-11.4132-14.4829-11.4132-12.6605,0-18.7031,10.5504-18.7031,24.1695,0,14.0036,7.2899,24.0746,18.7989,24.0746,8.1527,0,13.9077-4.8912,14.7705-12.0852h13.6201c-.3835,6.0426-2.9729,11.8935-7.5775,16.2095-4.6995,4.4119-11.3173,7.2899-20.8131,7.2899-19.2783,0-32.9943-14.8673-32.9943-35.4888Z"/><path class="b" d="M762.8846,1074.6446l-22.8274-42.1066h15.155l10.3586,20.3338c2.1101,4.1243,4.5078,9.7834,4.5078,9.7834h.1917s2.5894-5.6591,4.6036-9.7834l10.1669-20.3338h14.5788l-22.8274,42.1066v26.4723h-13.9077v-26.4723Z"/><path class="b" d="M317.1102.0818l106.4178.089c20.2485.0323,47.419-.4933,67.2227.9704,72.1312,4.6901,140.7447,32.2973,195.4577,78.6489,55.1092,46.8934,92.6142,110.5499,106.5067,180.8132,5.4826,27.4859,7.3587,56.4354,6.542,84.3822-1.6496,55.9583,3.7602,113.2184-3.744,168.8047-8.329,61.7077-34.8446,118.8466-76.0854,166.0472-55.6833,62.9126-133.4346,102.9891-217.841,112.2643-24.8982,2.6362-48.6239,1.2292-73.6595,1.1806l-117.3021-.0728c-18.6797,0-53.1442-.9542-70.7969.4852l-1.1159.097v-118.8709l-.0404-73.4574,153.5214.0728c29.5075.0485,65.007,1.0351,93.7705-1.3747,35.2004-4.1969,65.8561-25.0437,87.366-50.8314,37.1492-43.02,31.1167-101.5335,31.9819-154.1764.4367-26.75.2588-56.2494-2.6847-83.0479-4.2292-38.4754-24.1138-71.4843-55.4973-95.032-18.3239-13.5367-39.85-22.3105-62.5568-25.4885-21.8172-3.0486-69.5677-1.6577-93.9565-1.6496l-171.3681-.0162-146.3487-.0404-44.0146-.0485c-8.4827,0-20.7094-.283-28.8848.7844L.089.2678c33.3566-.6146,69.0664.0243,102.6818,0l214.3557-.2022-.0163.0162Z"/><path class="b" d="M.0727,234.775c3.7925.372,7.9813.4367,11.8062.4609,60.5352.4124,121.1917-.6712,181.7188.0162-.7278,14.0138-.1132,34.885-.1456,49.481l.0162,105.2938.2183,261.7748c.0647,46.5133.9542,95.3555.0485,141.5938-38.257-.5903-77.7027-.1456-116.0326-.1698-22.9817-.0081-55.376-.9138-77.6461.558l.0243-559.0086h-.0081Z"/></svg>