<?xml version="1.0" encoding="UTF-8"?><svg id="a" xmlns="http://www.w3.org/2000/svg" viewBox="0 0 2674.95 453.59"><polygon points="1688.75 362.45 1571.09 154.48 1570.5699 334.9 1599.4301 335.17 1599.37 359.07 1511.71 359.35 1511.71 335.17 1540.08 334.89 1540.05 120.18 1511.21 120.05 1511.5 96.32 1574.99 96.38 1684.5 289.4 1684.97 120.09 1655.88 119.85 1655.84 96.51 1742.71 96.27 1742.88 119.98 1714.77 120.14 1714.91 362.34 1688.75 362.45" fill="#fff"/><path d="M1931.14,357.72l-103.55,1.43-.0601-23.93,26.15-.42V120.04l-26.26-.11.09-23.64,103.24.51c11.71.06,23.62,3.9,34.76,6.9,68.3099,18.41,88.61,92.89,76.9301,158.03-4.86,27.12-16.87,51.94-38.46,69.5-20.41,16.6-45.64,26.12-72.84,26.5v-.01ZM2003.45,169.34c-5.33-11.67-13.29-20.32-22.59-28.81-16.17-11.72-35.37-19.31-55.9301-19.48l-42.0601-.36v213.6l45.04-.75c23.9-.4,45.49-10.19,61.7-27.07,31.13-34.65,32.45-96.38,13.84-137.13h.0001Z" fill="#fff"/><path d="M1478.8101,296.47c-23.29,52.42-76.5699,79.08-131.0601,61.68-28.05-8.96-49.39-29.45-62.91-55.5-19.22-37.04-21.48-79.5-11.2-119.73,7.3199-28.64,22.5-53.37,46.12-70.68,40.01-29.33,92.97-26.78,129.8101,6.58,46.74,42.34,54.6899,120.35,29.24,177.64v.01ZM1416.99,326.01c44.27-25.51,55.89-88.46,42.9301-136.66-5.64-20.98-16.53-39.02-32.8101-52.79-23.6899-20.03-56.02-23.48-82.83-7.54-35.63,21.19-48.7,59.61-48.35,100.61.23,26.8,6.72,52.58,22.51,73.76,23.21,31.14,64.4,42.3,98.54,22.62h.0099Z" fill="#fff"/><path d="M2126.8,269.73l-19.28,64.79,27.3101.84-.0701,23.93-77.02-.04.1299-23.96,21.7-.42,34.1001-107.07,33.9399-107.66-29.22-.07.0601-23.71,68.02.12,40.0801,132.82,32.6599,105.64,21.8301.55-.03,23.79-80.0601.02-.78-23.94,27.8899-.49-20.01-64.7-81.25-.42.0002-.02ZM2133.8501,244.97l68.3501.1-33.8601-114.8-13.99,46.88-20.49,67.82h-.01Z" fill="#fff"/><path d="M1039.64,355.24c-11.6801-5.74-18.11-14.64-27.94-24.09l-.43,27.55-23.06.07-.16-88.01,24.3-.11c3.4,35.12,28.17,65.56,63.5099,64.98,24.78-.41,42.16-18.54,43.21-43.05.79-18.39-7.01-34.95-24.29-43l-41.46-15.44c-39.46-14.7-61.55-25.18-63.2-73.36-1.27-37.16,24.52-67.01,61.83-69.03,22.5699-1.22,41.9301,6.44,57.65,25.47l.65-20.64,20.6-.04v73.87l-20.95-.14c-2.03-25.33-20.4399-47.05-45.14-50.92-18.83-2.95-36.38,4.2-44.47,19.87-8.09,15.68-6.52,36.46,8.1899,47.88,10.8,8.39,24.1899,12.86,37.17,16.81,22.64,6.89,52.15,17.02,65.7,34.7,27.88,36.4,17.89,101.38-26.24,118.86-20.9399,8.29-44.87,7.91-65.48-2.22l.01-.01Z" fill="#fff"/><polygon points="881.85 96.52 881.97 120.05 857.87 120.18 797.04 312.37 781.68 362.06 759.41 361.53 683.94 120.24 659.9 119.95 660 96.58 742.78 96.46 742.84 119.98 716.48 120.33 771.36 297.4 792.35 232.44 827.66 120.1 799.92 120.04 799.96 96.52 881.85 96.52" fill="#fff"/><path d="M2521.4299,269.86l-19.47,64.99,27.8201.42-.1201,23.99-76.97.03-.1699-23.94,21.6499-.37,14.1499-44.82,53.74-170-29.73-.14.5801-23.6,67.8999-.1,17.8501,59.75,54.9299,179.02,21.3799.28-.1201,23.86-80,.03-.3999-23.88,28.01-.51-19.8899-64.8-81.1201-.21h-.0198ZM2596.3799,244.83l-24.23-81.78-9.8301-32.28-34.1899,114.38,68.25-.31v-.01Z" fill="#fff"/><polygon points="2406.4299 359.29 2327.3899 359.26 2326.99 335.25 2352.3999 334.78 2352.46 121.15 2305.95 120.9 2305.79 194.56 2281.3899 194.13 2281.53 155.54 2281.3 96.49 2453.03 96.45 2453.05 194.44 2428.9099 194.45 2428.8 120.89 2381.5601 121.01 2381.51 155.18 2381.5901 334.89 2406.51 335.11 2406.4299 359.29" fill="#fff"/><polygon points="1240.12 359.24 1160.46 359.25 1160.09 335.38 1185.5699 334.76 1185.5699 120.14 1160.02 120 1160.0601 96.26 1240.24 96.1 1240.2 119.89 1214.76 120.21 1214.86 334.81 1240.2 335.16 1240.12 359.24" fill="#fff"/><polygon points="973.54 335.36 973.56 358.78 892.28 358.8 892.2 335.45 918.33 334.82 918.39 120.16 892.08 119.65 892.08 96.49 973.56 96.49 973.63 120.05 947.71 120.11 947.31 183.29 947.9 334.77 973.54 335.36" fill="#fff"/><path d="M424.54,303.33l143.7-255.7,12.66-22.5c-3.13,10.35-7.23,17.91-10.87,27.77l-93.13,252.32,125.93-218.45,26.68-47.21,1.05.58-87.13,185.29-108.91,228.17-220.38-.13,26.73-56.67L110.1,164.91c7.49,31.98,20.18,58.93,30.27,88.36l42.04,117.98,17.79,48.08-1.59,1.43-59.93-125.47L0,0l222.07,8.14,100.64,212.86,37.21-77.62,47.55-101.52,1.74,1.22-16.79,46.54-54.79,156.51c-1.33,3.79,1.04,9.37,4.26,13.16l88.44-157.53,37.94-67.92c-5.2,19.9-12.75,36.21-19.7,54.83l-75.35,201.75,1.89,2.36L522.58,35l-85.84,232.89c-3.03,3.22-4.37,6.54-4.82,10.41-2.52,8.36-6.73,14.76-7.38,25.02v.01ZM312.75,241.82c-16.06-27.77-29.26-54.69-47.71-82.16l37.63,103.05,10.08-20.89h0ZM262.43,350.35c.96-1.95.8-6.47-.56-8.88l-101.28-179.55-1.9,1.24,85.08,224.97,18.65-37.78h.01ZM288.95,293.47l-76.25-132.63,60.88,164.22,15.37-31.59ZM107.94,164.37l-.98.03.98.03h1.01l.98-.03-.98-.03h-1.01ZM328.53,272.09l-1.51,3.31-7.88,22.51c17.39-20.19,12.02-31.59,9.39-25.83v.01ZM372.75,291.43l-4.56,10.56c4.08-2.18,5.86-3.73,4.56-10.56Z" fill="#064c92" stroke="#f7f7f7" stroke-miterlimit="10"/></svg>