<?xml version="1.0" encoding="UTF-8"?><svg id="a" xmlns="http://www.w3.org/2000/svg" viewBox="0 0 542.397 160"><defs><style>.b,.c{fill:#10233f;}.c{stroke:#10233f;stroke-miterlimit:10;stroke-width:1.5px;}</style></defs><path class="b" d="M63.918.016l21.45.018c4.081.007,9.558-.099,13.55.196,14.539.945,28.369,6.51,39.397,15.853,11.108,9.452,18.668,22.283,21.468,36.445,1.105,5.54,1.483,11.375,1.319,17.008-.333,11.279.758,22.821-.755,34.025-1.679,12.438-7.023,23.955-15.336,33.469-11.224,12.681-26.896,20.759-43.909,22.628-5.019.531-9.801.248-14.847.238l-23.644-.015c-3.765,0-10.712-.192-14.27.098l-.225.02v-23.96l-.008-14.806,30.944.015c5.948.01,13.103.209,18.901-.277,7.095-.846,13.274-5.048,17.61-10.246,7.488-8.671,6.272-20.466,6.446-31.076.088-5.392.052-11.338-.541-16.739-.852-7.755-4.86-14.409-11.186-19.155-3.693-2.729-8.032-4.497-12.609-5.138-4.398-.614-14.022-.334-18.938-.333l-34.542-.003-29.499-.008-8.872-.01c-1.71,0-4.174-.057-5.822.158L.018.054C6.741-.07,13.939.059,20.715.054L63.921.013l-.003.003Z"/><path class="b" d="M.015,47.322c.764.075,1.609.088,2.38.093,12.202.083,24.428-.135,36.628.003-.147,2.825-.023,7.032-.029,9.974l.003,21.223.044,52.764c.013,9.375.192,19.22.01,28.54-7.711-.119-15.662-.029-23.388-.034-4.632-.002-11.162-.184-15.651.112l.005-112.676h-.002Z"/><line class="c" x1="201.925" y1="30" x2="201.925" y2="130"/><path class="b" d="M249.205,102.838h3.934l6.609,18.752h-3.96l-1.259-3.986h-6.766l-1.233,3.986h-3.855l6.53-18.752ZM248.655,114.693h4.957l-1.678-5.403c-.315-.997-.761-2.885-.761-2.885h-.052s-.472,1.888-.787,2.885c0,0-1.678,5.403-1.678,5.403Z"/><path class="b" d="M313.193,119.073h-.052c-1.285,2.15-3.042,2.911-5.272,2.911-2.832,0-5.036-1.023-6.583-2.728-1.547-1.731-2.439-4.144-2.439-6.976,0-3.121,1.102-5.849,3.068-7.658,1.521-1.39,3.514-2.151,6.032-2.151,4.721,0,7.422,2.596,8.025,6.268h-3.724c-.42-1.809-1.809-3.121-4.222-3.121-3.541,0-5.298,2.937-5.298,6.662,0,3.829,2.019,6.635,5.245,6.635,2.911,0,4.826-2.177,4.826-4.249v-.105h-4.511v-2.937h7.894v9.966h-2.859l-.131-2.518h0Z"/><path class="b" d="M358.313,102.838h13.795v3.199h-9.992v4.196h8.759v3.121h-8.759v5.062h10.071v3.174h-13.874v-18.752h0Z"/><path class="b" d="M413.814,102.838h3.855l6.242,10.464c.603,1.023,1.311,2.623,1.311,2.623h.052s-.105-1.941-.105-3.252v-9.835h3.75v18.752h-3.671l-6.4-10.36c-.603-.997-1.338-2.596-1.338-2.596h-.053s.105,1.967.105,3.279v9.677h-3.75v-18.752h0Z"/><path class="b" d="M470.361,112.28c0-5.56,3.462-9.809,8.996-9.809,4.616,0,7.343,2.754,7.736,6.321h-3.777c-.341-1.888-1.757-3.121-3.96-3.121-3.462,0-5.115,2.885-5.115,6.609,0,3.829,1.993,6.583,5.14,6.583,2.229,0,3.803-1.338,4.039-3.304h3.725c-.105,1.652-.813,3.252-2.072,4.432-1.285,1.206-3.095,1.993-5.691,1.993-5.271,0-9.022-4.065-9.022-9.704h0Z"/><path class="b" d="M532.353,114.352l-6.242-11.514h4.144l2.832,5.56c.577,1.128,1.233,2.675,1.233,2.675h.052s.708-1.547,1.259-2.675l2.78-5.56h3.986l-6.242,11.514v7.238h-3.803v-7.238h0Z"/><path class="b" d="M242.675,38.016h22.214c14.421,0,24.107,10.415,24.107,26.365,0,9.177-3.205,16.533-9.031,20.975-4.079,3.059-9.322,4.734-15.877,4.734h-21.412v-52.074ZM263.395,79.53c8.489,0,12.879-5.342,12.879-14.929,0-9.513-4.61-15.661-12.733-15.661h-7.757v30.589h7.611,0Z"/><path class="b" d="M290.539,71.715c0-10.96,7.665-19.342,18.841-19.342,5.23,0,9.384,1.719,12.537,4.585,4.37,4.012,6.519,10.388,6.447,17.838h-26.363c.716,4.943,3.438,8.023,8.238,8.023,3.08,0,5.086-1.361,6.089-3.654h11.39c-.788,3.295-2.937,6.447-6.161,8.668-3.08,2.149-6.806,3.367-11.462,3.367-12.107,0-19.557-8.382-19.557-19.486h0ZM316.661,67.512c-.437-4.443-3.205-7.283-7.065-7.283-4.515,0-6.846,2.84-7.647,7.283h14.712Z"/><path class="b" d="M331.165,52.946h11.289v5.098h.23c2.331-3.652,5.899-6.201,11.289-6.201,4.879,0,10.487,6.565,10.487,6.565h.319c2.9-4.495,6.887-6.525,11.672-6.525,8.41,0,12.615,5.727,12.615,14.064v24.142h-12.017v-22.14c0-4.006-1.697-6.336-5.312-6.336-3.837,0-5.977,3.132-5.977,7.574v20.902h-11.653v-22.14c0-4.006-1.697-6.336-5.312-6.336-3.763,0-5.977,3.132-5.977,7.574v20.902h-11.653v-37.144h0Z"/><path class="b" d="M393.071,52.946h11.653v4.734h.069c2.549-3.579,6.191-5.837,11.288-5.837,9.905,0,15.95,8.521,15.95,19.737,0,12.09-6.482,19.81-16.241,19.81-4.806,0-8.23-1.894-10.56-4.942h-.142v16.023h-12.017v-49.525h0ZM420.015,72.017c0-6.409-2.403-10.633-7.502-10.633-5.171,0-7.793,4.588-7.793,10.633s2.913,10.196,8.011,10.196c4.515,0,7.283-3.86,7.283-10.196Z"/><path class="b" d="M432.472,78.073h11.102c.433,3.677,2.884,5.479,6.777,5.479,3.532,0,5.768-1.298,5.768-3.677,0-3.316-4.47-3.677-9.372-4.542-6.416-1.082-13.265-2.812-13.265-11.463,0-7.786,7.209-11.823,15.932-11.823,10.453,0,16.076,4.542,16.653,11.823h-10.814c-.433-3.316-2.667-4.325-5.911-4.325-2.884,0-5.119,1.082-5.119,3.388,0,2.595,4.181,2.956,8.867,3.821,6.489,1.082,14.13,2.74,14.13,12.184,0,8.074-7.137,12.256-16.797,12.256-10.814,0-17.591-4.974-17.951-13.121h0Z"/><path class="b" d="M468.129,71.715c0-10.96,7.665-19.342,18.841-19.342,5.23,0,9.385,1.719,12.537,4.585,4.37,4.012,6.519,10.388,6.447,17.838h-26.363c.716,4.943,3.438,8.023,8.238,8.023,3.08,0,5.086-1.361,6.089-3.654h11.39c-.788,3.295-2.937,6.447-6.161,8.668-3.08,2.149-6.806,3.367-11.462,3.367-12.107,0-19.557-8.382-19.557-19.486h0ZM494.251,67.512c-.437-4.443-3.205-7.283-7.064-7.283-4.516,0-6.846,2.84-7.647,7.283h14.712Z"/><path class="b" d="M507.78,93.367h4.086c3.502,0,4.889-1.386,4.889-3.94,0-1.605-.73-3.794-2.262-7.734l-11.017-28.747h12.472l5.01,15.83c1.162,3.631,2.323,8.569,2.323,8.569h.145s1.017-4.938,2.178-8.569l4.865-15.83h11.927l-12.872,37.744c-2.982,8.727-6.545,11.781-14.036,11.781h-7.708v-9.104h0Z"/></svg>