<?xml version="1.0" encoding="UTF-8"?><svg id="a" xmlns="http://www.w3.org/2000/svg" viewBox="0 0 818.395 219"><defs><style>.b{fill:#4a6cf7;}</style></defs><path class="b" d="M0,214.5L87,5.4h34.5l86.7,209.1h-51.3l-52.5-138.9-53.1,138.9H0ZM62.4,179.101l14.7-42h54.3l15.3,42H62.4Z"/><path class="b" d="M264.303,217.8c-12.802,0-23.7-3.347-32.7-10.05-9-6.698-15.853-15.899-20.55-27.6-4.702-11.7-7.05-24.947-7.05-39.75,0-16.598,2.7-30.6,8.1-42s12.699-20.1,21.9-26.1c9.197-6,19.299-9,30.3-9,6.999,0,13.8,1.5,20.4,4.5s12.3,7.903,17.1,14.7c4.8,6.802,7.997,16.102,9.6,27.9l-8.1-6.6V5.4h45v209.1h-45v-36.6l9.3-9c-2.4,13.8-6.3,24.201-11.7,31.2-5.4,7.003-11.354,11.699-17.85,14.1-6.501,2.4-12.75,3.6-18.75,3.6ZM278.403,176.4c6.197,0,11.447-1.448,15.75-4.351,4.298-2.896,7.598-7.05,9.9-12.449,2.297-5.4,3.45-11.799,3.45-19.201s-1.153-13.749-3.45-19.05c-2.302-5.297-5.602-9.398-9.9-12.3-4.303-2.896-9.553-4.35-15.75-4.35-6,0-11.203,1.401-15.6,4.2-4.402,2.803-7.753,6.853-10.05,12.15-2.301,5.302-3.45,11.752-3.45,19.35s1.148,14.1,3.45,19.5c2.297,5.399,5.648,9.501,10.05,12.3,4.397,2.803,9.6,4.2,15.6,4.2Z"/><path d="M442.801,219c-23.203,0-42.201-6-57-18-14.803-12-23.803-27.998-27-48l45.9-11.4c2.198,12,6.75,20.954,13.65,26.85,6.899,5.901,15.548,8.85,25.949,8.85,5.199,0,9.849-.797,13.95-2.399,4.097-1.599,7.351-3.999,9.75-7.2,2.4-3.197,3.601-6.998,3.601-11.4,0-3.998-1.2-7.547-3.601-10.649-2.399-3.099-6.3-6.099-11.7-9-5.399-2.897-12.6-6.047-21.6-9.45-14.203-5.597-25.8-11.55-34.8-17.85-9-6.3-15.6-13.547-19.8-21.75-4.2-8.199-6.3-17.597-6.3-28.2,0-11.597,2.85-21.848,8.55-30.75,5.7-8.897,13.697-15.9,24-21,10.298-5.1,22.247-7.65,35.85-7.65,14.597,0,27.549,3.352,38.85,10.05,11.297,6.703,20.349,16.852,27.15,30.45l-37.5,22.8c-3.802-6.998-8.25-12.347-13.35-16.05-5.101-3.698-10.65-5.55-16.65-5.55-3.6,0-6.9.703-9.9,2.1-3,1.402-5.399,3.352-7.199,5.85-1.801,2.503-2.7,5.452-2.7,8.85s1.05,6.6,3.149,9.6c2.101,3,5.949,6.051,11.551,9.15,5.597,3.103,13.396,6.553,23.399,10.35,13.397,5.001,24.45,10.5,33.15,16.5s15.248,12.952,19.649,20.85c4.397,7.903,6.601,17.353,6.601,28.35,0,12.802-3.15,24.15-9.45,34.051-6.3,9.899-15.104,17.652-26.4,23.25-11.301,5.597-24.553,8.399-39.75,8.399Z"/><path d="M599.999,217.8c-13.603,0-25.2-2.151-34.8-6.449-9.6-4.299-17.4-10.098-23.4-17.4-6-7.299-10.35-15.497-13.05-24.6-2.7-9.099-4.05-18.45-4.05-28.051,0-9.197,1.35-18.398,4.05-27.6,2.7-9.197,6.9-17.597,12.601-25.2,5.699-7.599,13.199-13.697,22.5-18.3,9.3-4.599,20.55-6.9,33.75-6.9,11.597,0,21.797,1.95,30.6,5.85,8.799,3.9,16.148,9.352,22.05,16.35,5.897,7.003,10.351,15.3,13.351,24.9s4.5,20.1,4.5,31.5c0,2.001-.052,4.102-.15,6.3-.104,2.203-.352,4.903-.75,8.1h-97.2c1.2,8.002,4.95,13.801,11.25,17.4s13.547,5.4,21.75,5.4c7.2,0,14.597-1.247,22.2-3.75,7.599-2.499,14.198-5.949,19.8-10.351l19.2,31.8c-7.8,5.203-14.901,9.352-21.3,12.45-6.403,3.104-12.952,5.297-19.65,6.601-6.703,1.298-14.451,1.949-23.25,1.949ZM623.699,133.8c.398-1.598.75-3.197,1.05-4.8.3-1.599.45-3.099.45-4.5,0-3.797-.703-7.148-2.1-10.05-1.402-2.897-3.352-5.349-5.851-7.35-2.503-1.997-5.353-3.548-8.55-4.65-3.201-1.097-6.6-1.65-10.2-1.65-6.6,0-11.953,1.2-16.05,3.6-4.102,2.4-7.153,5.302-9.15,8.7-2.001,3.403-3.3,6.703-3.899,9.9h69.3l-15,10.8Z"/><path d="M719.697,217.8c-10.801,0-19.903-3.253-27.301-9.75-7.401-6.496-11.1-16.847-11.1-31.05V5.4h45v162.6c0,3,.849,5.101,2.55,6.3,1.697,1.2,3.849,1.801,6.45,1.801,1.599,0,3.15-.15,4.65-.45s3.047-.647,4.649-1.05v38.399c-4.603,1.8-9.052,3.047-13.35,3.75-4.304.698-8.151,1.05-11.55,1.05Z"/><path d="M793.496,217.8c-10.801,0-19.904-3.253-27.301-9.75-7.401-6.496-11.101-16.847-11.101-31.05V5.4h45.001v162.6c0,3,.848,5.101,2.549,6.3,1.697,1.2,3.85,1.801,6.451,1.801,1.598,0,3.15-.15,4.65-.45s3.047-.647,4.648-1.05v38.399c-4.602,1.8-9.051,3.047-13.35,3.75-4.303.698-8.15,1.05-11.549,1.05Z"/></svg>