<?xml version="1.0" encoding="UTF-8"?><svg id="a" xmlns="http://www.w3.org/2000/svg" viewBox="0 0 878.3955 219"><defs><style>.b{fill:#6279d9;}</style></defs><path class="b" d="M0,214.5L87,5.3999h34.5l86.6997,209.1001h-51.2998l-52.5-138.8999-53.1001,138.8999H0ZM62.3999,179.0996l14.7002-42h54.2998l15.2998,42H62.3999Z"/><path class="b" d="M276.3022,217.7998c-12.8008,0-23.6992-3.3467-32.6992-10.0498-9-6.6982-15.8535-15.9004-20.5508-27.5996-4.7012-11.7002-7.0498-24.9473-7.0498-39.75,0-16.5986,2.7002-30.6006,8.1006-42.0005,5.3994-11.3999,12.6982-20.1001,21.8994-26.1001,9.1973-6,19.2988-9,30.2998-9,6.999,0,13.8008,1.5,20.4004,4.5s12.2998,7.9033,17.0996,14.7002c4.8008,6.8018,7.9971,16.1016,9.6006,27.8999l-8.1006-6.6001V5.3999h45v209.1001h-45v-36.5996l9.3008-9c-2.4004,13.7998-6.3008,24.2012-11.7002,31.1992-5.4004,7.0039-11.3535,11.7002-17.8506,14.1006-6.501,2.3994-12.75,3.5996-18.75,3.5996ZM290.4028,176.4004c6.1963,0,11.4463-1.4492,15.75-4.3506,4.2979-2.8965,7.5986-7.0498,9.8994-12.4502,2.2969-5.3994,3.4502-11.7979,3.4502-19.1992,0-7.3975-1.1533-13.749-3.4502-19.0503-2.3008-5.2969-5.6016-9.3984-9.8994-12.3003-4.3037-2.8965-9.5537-4.3496-15.75-4.3496-6,0-11.2031,1.4014-15.6006,4.1997-4.4014,2.8032-7.7529,6.853-10.0498,12.1499-2.3018,5.3018-3.4502,11.752-3.4502,19.3506,0,7.6025,1.1484,14.0996,3.4502,19.5,2.2969,5.3994,5.6484,9.501,10.0498,12.2998,4.3975,2.8027,9.6006,4.2002,15.6006,4.2002Z"/><path d="M466.8018,219c-23.2031,0-42.2017-6-57.0005-18-14.8027-12-23.8027-27.998-27-48l45.9004-11.4004c2.1982,12,6.75,20.9531,13.6494,26.8506,6.8999,5.9014,15.5483,8.8496,25.9507,8.8496,5.1973,0,9.8477-.7969,13.9492-2.3994,4.0977-1.5986,7.3496-3.999,9.75-7.2002,2.4004-3.1973,3.5996-6.999,3.5996-11.4004,0-3.998-1.1992-7.5469-3.5996-10.6494-2.4004-3.0986-6.2988-6.0986-11.6992-9-5.4004-2.8975-12.5996-6.0469-21.5996-9.4502-14.2031-5.5972-25.8003-11.5503-34.8003-17.8501-9-6.3003-15.6006-13.5469-19.8008-21.75-4.1992-8.1987-6.2998-17.5972-6.2998-28.2002,0-11.5967,2.8506-21.8481,8.5498-30.75,5.7002-8.897,13.6973-15.8999,24-21,10.2988-5.1001,22.2476-7.6499,35.8511-7.6499,14.5957,0,27.5469,3.3516,38.8496,10.0498,11.2969,6.7031,20.3477,16.8516,27.1504,30.4502l-37.5,22.7998c-3.8027-6.998-8.25-12.3467-13.3516-16.0498-5.0996-3.6982-10.6484-5.5498-16.6484-5.5498-3.6016,0-6.9004.7031-9.9004,2.0996-3,1.4019-5.4004,3.3516-7.2012,5.8501-1.7988,2.5034-2.6992,5.4517-2.6992,8.8501,0,3.4033,1.0508,6.6001,3.1504,9.6001s5.9473,6.0513,11.5488,9.1499c5.5977,3.103,13.3984,6.5532,23.4004,10.3501,13.3965,5.0015,24.4512,10.5,33.1504,16.5s15.248,12.9517,19.6504,20.8501c4.3965,7.9033,6.5996,17.3525,6.5996,28.3496,0,12.8018-3.1504,24.1504-9.4492,34.0498-6.3008,9.9004-15.1035,17.6533-26.4004,23.25-11.3027,5.5977-24.5527,8.4004-39.75,8.4004Z"/><path d="M635.999,217.7998c-13.6035,0-25.1992-2.1514-34.8008-6.4502-9.5996-4.2979-17.3984-10.0967-23.3984-17.3994-6-7.2988-10.3516-15.4971-13.0508-24.6006-2.6992-9.0977-4.0508-18.4492-4.0508-28.0498,0-9.1963,1.3516-18.3984,4.0508-27.5996,2.6992-9.1973,6.9004-17.5972,12.5996-25.2002,5.7012-7.5986,13.2012-13.6968,22.5-18.2998,9.3008-4.5986,20.5508-6.9004,33.75-6.9004,11.5977,0,21.7969,1.9502,30.5996,5.8501,8.7988,3.8999,16.1484,9.3516,22.0508,16.3501,5.8965,7.0029,10.3496,15.2998,13.3496,24.8999s4.5,20.1001,4.5,31.5005c0,2.001-.0508,4.1016-.1504,6.2998-.1016,2.2031-.3516,4.9033-.75,8.0996h-97.1992c1.1992,8.002,4.9492,13.7998,11.25,17.4004,6.3008,3.5996,13.5469,5.3994,21.75,5.3994,7.1992,0,14.5977-1.2461,22.1992-3.75,7.5996-2.498,14.1992-5.9482,19.8008-10.3496l19.1992,31.7998c-7.7988,5.2031-14.9004,9.3516-21.2988,12.4502-6.4043,3.1035-12.9512,5.2969-19.6504,6.5996-6.7031,1.2988-14.4512,1.9502-23.25,1.9502ZM659.6982,133.7998c.3984-1.5986.75-3.1963,1.0508-4.7998.3008-1.5986.4492-3.0986.4492-4.5,0-3.7969-.7031-7.1484-2.0996-10.0498-1.4004-2.897-3.3516-5.3486-5.8496-7.3501-2.5039-1.9971-5.3535-3.5483-8.5508-4.6499-3.2012-1.0972-6.5996-1.6504-10.1992-1.6504-6.5996,0-11.9531,1.2002-16.0508,3.6001-4.1016,2.3999-7.1523,5.3018-9.1484,8.7002-2.002,3.4028-3.3008,6.7031-3.9004,9.8999h69.2988l-15,10.7998Z"/><path d="M767.6963,217.7998c-10.7988,0-19.9023-3.2529-27.2988-9.75-7.4023-6.4971-11.1016-16.8467-11.1016-31.0498V5.3999h45v162.6001c0,3,.8496,5.0996,2.5508,6.2998,1.6973,1.2002,3.8477,1.7998,6.4492,1.7998,1.5996,0,3.1504-.1494,4.6504-.4492,1.5-.3008,3.0469-.6475,4.6504-1.0508v38.4004c-4.6035,1.7998-9.0508,3.0469-13.3496,3.75-4.3027.6982-8.1523,1.0498-11.5508,1.0498Z"/><path d="M853.4951,217.7998c-10.7988,0-19.9023-3.2529-27.2988-9.75-7.4023-6.4971-11.1016-16.8467-11.1016-31.0498V5.3999h45v162.6001c0,3,.8496,5.0996,2.5508,6.2998,1.6973,1.2002,3.8477,1.7998,6.4492,1.7998,1.5996,0,3.1504-.1494,4.6504-.4492,1.5-.3008,3.0469-.6475,4.6504-1.0508v38.4004c-4.6035,1.7998-9.0508,3.0469-13.3496,3.75-4.3027.6982-8.1523,1.0498-11.5508,1.0498Z"/></svg>