<?xml version="1.0" encoding="UTF-8"?><svg id="a" xmlns="http://www.w3.org/2000/svg" viewBox="0 0 938.845 630.172"><polygon points="479.353 628.892 424.534 531.996 424.292 616.056 437.738 616.182 437.71 627.317 396.868 627.448 396.868 616.182 410.086 616.051 410.072 516.015 396.635 515.955 396.771 504.899 426.351 504.927 477.373 594.857 477.592 515.974 464.039 515.862 464.02 504.987 504.494 504.876 504.573 515.922 491.476 515.997 491.542 628.841 479.353 628.892" fill="#080808"/><path d="M592.286,627.452l-48.245.666-.028-11.149,12.184-.196v-100.059l-12.235-.051.042-11.014,48.101.238c5.456.028,11.005,1.817,16.195,3.215,31.826,8.577,41.284,43.279,35.843,73.628-2.264,12.636-7.86,24.199-17.919,32.381-9.509,7.734-21.264,12.17-33.937,12.347v-.005ZM625.976,539.684c-2.483-5.437-6.192-9.467-10.525-13.423-7.534-5.46-16.479-8.997-26.058-9.076l-19.596-.168v99.519l20.985-.349c11.135-.186,21.194-4.748,28.747-12.612,14.504-16.144,15.119-44.905,6.448-63.89h0Z" fill="#080808"/><path d="M381.54,598.936c-10.851,24.423-35.675,36.844-61.062,28.737-13.069-4.175-23.011-13.721-29.311-25.858-8.955-17.257-10.008-37.04-5.218-55.784,3.41-13.344,10.483-24.866,21.488-32.931,18.641-13.665,43.316-12.477,60.48,3.066,21.777,19.727,25.481,56.072,13.623,82.765v.005ZM352.737,612.699c20.626-11.885,26.04-41.215,20.002-63.672-2.628-9.775-7.702-18.18-15.287-24.595-11.037-9.332-26.1-10.94-38.591-3.513-16.6,9.873-22.69,27.773-22.527,46.875.107,12.486,3.131,24.498,10.488,34.366,10.814,14.509,30.005,19.708,45.911,10.539h.005Z" fill="#080808"/><path d="M683.446,586.405l-8.983,30.186,12.724.391-.033,11.149-35.885-.019.061-11.163,10.11-.196,15.888-49.885,15.813-50.16-13.614-.033.028-11.047,31.691.056,18.674,61.882,15.217,49.219,10.171.256-.014,11.084-37.301.009-.363-11.154,12.994-.228-9.323-30.145-37.855-.196v-.009ZM686.731,574.869l31.845.047-15.776-53.487-6.518,21.842-9.547,31.598h-.005Z" fill="#080808"/><path d="M176.925,626.416c-5.442-2.674-8.438-6.821-13.018-11.224l-.2,12.836-10.744.033-.075-41.005,11.322-.051c1.584,16.363,13.125,30.545,29.59,30.275,11.545-.191,19.643-8.638,20.132-20.058.368-8.568-3.266-16.284-11.317-20.034l-19.317-7.194c-18.385-6.849-28.677-11.732-29.446-34.179-.592-17.313,11.424-31.221,28.807-32.162,10.516-.568,19.536,3,26.86,11.867l.303-9.616,9.598-.019v34.417l-9.761-.065c-.946-11.802-9.523-21.921-21.031-23.724-8.773-1.374-16.95,1.957-20.719,9.258-3.769,7.306-3.038,16.987,3.816,22.308,5.032,3.909,11.27,5.992,17.318,7.832,10.548,3.21,24.297,7.93,30.61,16.167,12.99,16.959,8.335,47.234-12.226,55.378-9.756,3.862-20.905,3.685-30.508-1.034l.005-.005Z" fill="#080808"/><polygon points="103.409 505.039 103.465 516.001 92.237 516.062 63.895 605.606 56.739 628.757 46.363 628.51 11.201 516.09 0 515.955 .047 505.067 38.615 505.011 38.643 515.969 26.361 516.132 51.931 598.631 61.71 568.365 78.161 516.025 65.237 515.997 65.256 505.039 103.409 505.039" fill="#080808"/><path d="M867.309,586.478l-9.071,30.28,12.962.196-.056,11.177-35.861.014-.079-11.154,10.087-.172,6.593-20.882,25.038-79.205-13.852-.065.27-10.996,31.635-.047,8.317,27.838,25.593,83.408,9.961.13-.056,11.117-37.273.014-.186-11.126,13.05-.238-9.267-30.191-37.795-.098h-.009ZM902.229,574.816l-11.289-38.102-4.58-15.04-15.929,53.291,31.798-.144v-.005Z" fill="#080808"/><polygon points="813.729 628.114 776.903 628.1 776.717 616.913 788.556 616.694 788.584 517.162 766.914 517.045 766.84 551.364 755.471 551.164 755.537 533.184 755.43 505.672 835.441 505.654 835.45 551.308 824.203 551.313 824.152 517.04 802.142 517.096 802.119 533.017 802.156 616.746 813.766 616.848 813.729 628.114" fill="#080808"/><polygon points="270.331 628.181 233.217 628.186 233.044 617.065 244.916 616.776 244.916 516.782 233.012 516.717 233.031 505.656 270.387 505.581 270.369 516.665 258.516 516.815 258.562 616.799 270.369 616.962 270.331 628.181" fill="#080808"/><polygon points="146.129 617.069 146.138 627.981 108.269 627.99 108.231 617.111 120.406 616.818 120.434 516.805 108.175 516.568 108.175 505.777 146.138 505.777 146.171 516.754 134.094 516.782 133.908 546.218 134.183 616.795 146.129 617.069" fill="#080808"/><path d="M562.541,303.33l143.7-255.7,12.66-22.5c-3.13,10.35-7.23,17.91-10.87,27.77l-93.13,252.32,125.93-218.45,26.68-47.21,1.05.58-87.13,185.29-108.91,228.17-220.38-.13,26.73-56.67-130.77-231.89c7.49,31.98,20.18,58.93,30.27,88.36l42.04,117.98,17.79,48.08-1.59,1.43-59.93-125.47L138.001,0l222.07,8.14,100.64,212.86,37.21-77.62,47.55-101.52,1.74,1.22-16.79,46.54-54.79,156.51c-1.33,3.79,1.04,9.37,4.26,13.16l88.44-157.53,37.94-67.92c-5.2,19.9-12.75,36.21-19.7,54.83l-75.35,201.75,1.89,2.36L660.581,35l-85.84,232.89c-3.03,3.22-4.37,6.54-4.82,10.41-2.52,8.36-6.73,14.76-7.38,25.02v.01ZM450.751,241.82c-16.06-27.77-29.26-54.69-47.71-82.16l37.63,103.05,10.08-20.89h0ZM400.431,350.35c.96-1.95.8-6.47-.56-8.88l-101.28-179.55-1.9,1.24,85.08,224.97,18.65-37.78h.01ZM426.951,293.47l-76.25-132.63,60.88,164.22,15.37-31.59ZM245.941,164.37l-.98.03.98.03h1.01l.98-.03-.98-.03h-1.01ZM466.531,272.09l-1.51,3.31-7.88,22.51c17.39-20.19,12.02-31.59,9.39-25.83v.01ZM510.751,291.43l-4.56,10.56c4.08-2.18,5.86-3.73,4.56-10.56Z" fill="#064c92"/></svg>