<?xml version="1.0" encoding="UTF-8"?><svg id="a" xmlns="http://www.w3.org/2000/svg" viewBox="0 0 1956.379 1871.532"><path d="M1236.412,911.541l339.617-604.316,29.92-53.176c-7.397,24.461-17.087,42.328-25.69,65.631l-220.101,596.328,297.62-516.28,63.055-111.575,2.482,1.371-205.921,437.91-257.396,539.252-520.841-.307,63.173-133.933-309.059-548.044c17.702,75.581,47.693,139.274,71.539,208.828l99.356,278.831,42.045,113.631-3.758,3.38-141.637-296.533L233.064,194.658l524.835,19.238,237.85,503.069,87.941-183.445,112.379-239.93,4.112,2.883-39.681,109.992-129.49,369.892c-3.143,8.957,2.458,22.145,10.068,31.102l209.017-372.303,89.667-160.521c-12.29,47.031-30.133,85.578-46.559,129.584l-178.081,476.812,4.467,5.578,348.527-609.232-202.872,550.407c-7.161,7.61-10.328,15.457-11.392,24.603-5.956,19.758-15.906,34.883-17.442,59.132v.024ZM972.21,766.17c-37.956-65.631-69.152-129.253-112.757-194.175l88.934,243.546,23.823-49.371h0ZM853.285,1022.667c2.269-4.609,1.891-15.291-1.323-20.987l-239.363-424.345-4.49,2.931,201.076,531.689,44.077-89.288h.024ZM915.962,888.238l-180.208-313.455,143.882,388.114,36.325-74.659ZM488.167,583.126l-2.316.071,2.316.071h2.387l2.316-.071-2.316-.071h-2.387ZM1009.504,837.709l-3.569,7.823-18.623,53.2c41.099-47.717,28.408-74.659,22.192-61.046v.024ZM1114.013,883.417l-10.777,24.957c9.643-5.152,13.849-8.815,10.777-24.957Z" fill="#064c92"/><path d="M102.267,1454.836h63.181v25.81h-17.01l47.521,171.194,47.521-171.194h-16.74v-25.81h60.211v25.81h-16.74l-59.671,202.885h-30.24l-59.941-202.885h-18.09v-25.81Z"/><path d="M308.031,1454.836h63.181v25.81h-18.9v177.075h18.9v25.81h-63.181v-25.81h18.9v-177.075h-18.9v-25.81Z"/><path d="M517.821,1520.177c-1.62-29.076-26.46-46.392-48.601-46.392-26.19,0-40.5,14.702-40.5,38.225,0,27.771,22.41,32.344,47.25,38.225,33.75,7.841,72.091,19.275,72.091,71.222,0,65.015-52.381,68.936-68.041,68.936-16.2,0-46.981-4.574-60.751-30.385v23.523h-19.98v-76.775h21.331c.54,28.423,20.52,57.826,54,57.826s46.441-20.582,46.441-42.472c0-28.097-20.521-35.61-38.071-40.185-43.201-11.435-81.271-16.662-81.271-69.262,0-43.125,25.92-64.688,67.231-64.688,20.25,0,39.96,10.127,50.761,27.443v-20.583h19.44v65.341h-21.331Z"/><path d="M571.412,1454.836h63.181v25.81h-18.9v177.075h18.9v25.81h-63.181v-25.81h18.9v-177.075h-18.9v-25.81Z"/><path d="M746.049,1447.976c41.851,0,90.181,28.096,90.181,121.207,0,119.575-78.571,121.209-90.181,121.209-12.421,0-90.182-1.634-90.182-121.209,0-80.043,37.53-121.207,90.182-121.207ZM746.049,1664.581c12.96,0,63.181-3.267,63.181-95.398,0-53.906-19.71-95.397-63.181-95.397-57.781,0-63.182,70.568-63.182,95.397,0,36.918,9.181,95.398,63.182,95.398Z"/><path d="M985.376,1454.836h63.182v25.81h-18.9v202.885h-27.811l-99.632-182.955v157.146h18.9v25.81h-63.18v-25.81h18.9v-177.075h-18.9v-25.81h46.98l99.362,182.956v-157.146h-18.9v-25.81Z"/><path d="M1147.368,1454.836h86.941c19.439,0,91.531,3.921,91.531,113.694,0,111.08-68.852,115-100.98,115h-77.492v-25.81h18.9v-177.075h-18.9v-25.81ZM1191.649,1657.721h34.02c48.602,0,73.172-28.751,73.172-88.538,0-67.954-33.75-88.537-65.881-88.537h-41.311v177.075Z"/><path d="M1459.219,1657.721h17.551l-9.99-33.324h-79.922l-9.99,33.324h17.279v25.81h-62.1v-25.81h18.9l55.35-177.075h-21.061v-25.81h56.162l63.451,202.885h17.82v25.81h-63.451v-25.81ZM1459.758,1598.587l-32.939-113.041-32.941,113.041h65.881Z"/><path d="M1561.493,1657.721h18.9v-177.075h-49.412v55.867h-21.33v-81.677h166.863v81.677h-21.33v-55.867h-49.412v177.075h18.9v25.81h-63.18v-25.81Z"/><path d="M1790.665,1657.721h17.551l-9.99-33.324h-79.922l-9.99,33.324h17.281v25.81h-62.102v-25.81h18.9l55.352-177.075h-21.061v-25.81h56.16l63.451,202.885h17.82v25.81h-63.451v-25.81ZM1791.206,1598.587l-32.941-113.041-32.939,113.041h65.881Z"/></svg>