<?xml version="1.0" encoding="UTF-8"?><svg id="a" xmlns="http://www.w3.org/2000/svg" viewBox="0 0 1782.37 1291.23"><path d="M1489.84,82.62l-222.98,597.2-55.5,148.5-12.29,33-9.19,25.8,1.26,1.1,15.63-29.04,130.35-235.26,209.2-380.16,91.91-166.51,2.9,1.83-143.08,383.44-155.75,415.68,1.96,2.24L1779.71,115.2l2.65,1.12-65.64,142.18-195.86,418.91-216.92,462.35-71.28,151.47h-622.56c-1.31,0-3.9-.05-3.7-.56l1.57-4,73.52-156.45-323.7-585.57c-20.12-33.21-35.74-68.5-58.64-101.19l171.12,478.81,106.89,297.86-2.2,2.28-135.57-288.59-120.64-257.43-179.02-380.38L0,0l628.69,22.44c4.13,5.3,6.07,10.87,7.46,17.19l5.03,7.24,120.97,257.99,153.23,327.15,132.63-285.09,97.03-208.81,27.34-59.56,2.21,1.94-87.49,247.28-117.64,330.34-3.75,9.23-7.87,23.36c-1.97,5.84-5.72,13.95-5.52,19.98l15.24,32.34,238.71-434.35,129.19-235.72,2.56,1.67-71.24,189.92-183.56,487.79-5.56,12.51-10.63,26.85-8.01,23.97-7.57,18.01-4.47,13.4-14.19,38.14c.68,1.15,1.64,2.74,1.22,1.75l86.7-154.03,152.42-270.38,190.69-341.54,23.6-42.81c.64-.06,2.83-.13,2.83.44,0,.85-.09,3.09-.43,3.99ZM693.47,1105.21l56.96-121.65-141.63-250.52-77.42-136.99-7.65-13.65-82.16-142.68c.46,8.29,4.34,15.91,7.41,24.04l3.67,9.71,19.5,51.26,88.15,232.59c-.05,4.93.96,7.8,4.14,11.33l110.57,290.63,18.47,45.93ZM727.12,794.45l5.62,15.28,34.15,91.96,8.63,23.13,4.06-.64c.94-.15.54-2.44.52-3.86l38.46-82.69-220.23-397.34c1.61,11.75,5.86,22.02,9.81,32.63l22.29,59.76,3.58,10.44,18.43,48.65,16.46,45.24,58.21,157.44ZM850.62,730.23l8.84,20.72,27.2-59.17-93.47-165.7-48.42-86.02-1.36,2.28,8.36,22.24,25.99,69.66,62.28,167.41,10.59,28.58ZM892.36,880.41l49.61-90.01-11.5-20.86-28.89,79.03c-1.87,5.13-4.91,9.44-6.02,15.2l-3.2,16.63ZM1342.37,880.53l-.75.75.75.75.75-.75-.75-.75ZM1340.87,883.53l-.75.75.75.75.75-.75-.75-.75Z" fill="#04498d"/></svg>