<?xml version="1.0" encoding="UTF-8"?><svg id="a" xmlns="http://www.w3.org/2000/svg" viewBox="0 0 160 27.132"><g id="b"><polygon points="101.01 21.679 93.973 9.24 93.942 20.032 95.668 20.048 95.664 21.477 90.421 21.494 90.421 20.048 92.118 20.031 92.116 7.188 90.391 7.181 90.408 5.761 94.206 5.765 100.756 17.31 100.784 7.183 99.044 7.169 99.042 5.773 104.238 5.758 104.248 7.176 102.567 7.186 102.575 21.673 101.01 21.679" fill="#080808"/><path d="M115.509,21.397l-6.194.086-.004-1.431,1.564-.025V7.18l-1.571-.007.005-1.414,6.175.031c.7.004,1.413.233,2.079.413,4.086,1.101,5.3,5.556,4.601,9.452-.291,1.622-1.009,3.107-2.3,4.157-1.221.993-2.73,1.562-4.357,1.585h0ZM119.834,10.129c-.319-.698-.795-1.215-1.351-1.723-.967-.701-2.116-1.155-3.345-1.165l-2.516-.022v12.776l2.694-.045c1.43-.024,2.721-.61,3.691-1.619,1.862-2.073,1.941-5.765.828-8.202h0Z" fill="#080808"/><path d="M88.453,17.733c-1.393,3.135-4.58,4.73-7.839,3.689-1.678-.536-2.954-1.762-3.763-3.32-1.15-2.216-1.285-4.755-.67-7.162.438-1.713,1.346-3.192,2.759-4.228,2.393-1.754,5.561-1.602,7.764.394,2.796,2.533,3.271,7.199,1.749,10.625h0ZM84.756,19.5c2.648-1.526,3.343-5.291,2.568-8.174-.337-1.255-.989-2.334-1.962-3.158-1.417-1.198-3.351-1.404-4.954-.451-2.131,1.267-2.913,3.565-2.892,6.018.014,1.603.402,3.145,1.346,4.412,1.388,1.863,3.852,2.53,5.894,1.353h0Z" fill="#080808"/><path d="M127.212,16.134l-1.153,3.875,1.634.05-.004,1.431-4.607-.002.008-1.433,1.298-.025,2.04-6.404,2.03-6.44-1.748-.004.004-1.418,4.069.007,2.397,7.944,1.954,6.319,1.306.033-.002,1.423h-4.789s-.047-1.431-.047-1.431l1.668-.029-1.197-3.87-4.86-.025h0ZM127.634,14.653l4.088.006-2.025-6.867-.837,2.804-1.226,4.057h0Z" fill="#080808"/><path d="M62.185,21.248c-.699-.343-1.083-.876-1.671-1.441l-.026,1.648-1.379.004-.01-5.264,1.453-.007c.203,2.101,1.685,3.921,3.799,3.887,1.482-.025,2.522-1.109,2.585-2.575.047-1.1-.419-2.09-1.453-2.572l-2.48-.924c-2.36-.879-3.682-1.506-3.78-4.388-.076-2.223,1.467-4.008,3.698-4.129,1.35-.073,2.508.385,3.448,1.523l.039-1.235,1.232-.002v4.418l-1.253-.008c-.121-1.515-1.223-2.814-2.7-3.046-1.126-.176-2.176.251-2.66,1.188-.484.938-.39,2.181.49,2.864.646.502,1.447.769,2.223,1.005,1.354.412,3.119,1.018,3.93,2.076,1.668,2.177,1.07,6.064-1.57,7.109-1.252.496-2.684.473-3.917-.133h0Z" fill="#080808"/><polygon points="52.747 5.773 52.754 7.181 51.312 7.188 47.674 18.684 46.755 21.656 45.423 21.624 40.909 7.192 39.471 7.175 39.477 5.777 44.428 5.77 44.432 7.176 42.855 7.197 46.138 17.789 47.393 13.903 49.505 7.184 47.846 7.18 47.849 5.773 52.747 5.773" fill="#080808"/><path d="M150.816,16.141l-1.165,3.887,1.664.025-.007,1.435-4.604.002-.01-1.432,1.295-.022.846-2.681,3.214-10.168-1.778-.008.035-1.412,4.061-.006,1.068,3.574,3.286,10.708,1.279.017-.007,1.427-4.785.002-.024-1.428,1.675-.031-1.19-3.876-4.852-.013h-.001ZM155.299,14.644l-1.449-4.892-.588-1.931-2.045,6.841,4.082-.019h0Z" fill="#080808"/><polygon points="143.938 21.49 139.21 21.489 139.186 20.053 140.706 20.024 140.709 7.246 137.928 7.231 137.918 11.637 136.459 11.612 136.467 9.303 136.453 5.771 146.725 5.769 146.726 11.63 145.282 11.631 145.276 7.231 142.45 7.238 142.447 9.282 142.452 20.031 143.942 20.044 143.938 21.49" fill="#080808"/><polygon points="74.176 21.487 69.411 21.488 69.389 20.06 70.913 20.023 70.913 7.186 69.385 7.178 69.388 5.758 74.183 5.748 74.181 7.171 72.659 7.19 72.665 20.026 74.181 20.047 74.176 21.487" fill="#080808"/><polygon points="58.231 20.059 58.232 21.46 53.371 21.461 53.366 20.065 54.929 20.027 54.932 7.187 53.359 7.157 53.359 5.771 58.232 5.771 58.236 7.181 56.686 7.184 56.662 10.963 56.697 20.024 58.231 20.059" fill="#080808"/><path d="M25.393,18.143l8.595-15.294.757-1.346c-.187.619-.432,1.071-.65,1.661l-5.57,15.092,7.532-13.066,1.596-2.824.063.035-5.212,11.083-6.514,13.648-13.182-.008,1.599-3.39-7.822-13.87c.448,1.913,1.207,3.525,1.811,5.285l2.515,7.057,1.064,2.876-.095.086-3.585-7.505L0,0l13.283.487,6.02,12.732,2.226-4.643,2.844-6.072.104.073-1.004,2.784-3.277,9.361c-.08.227.062.56.255.787l5.29-9.422,2.269-4.063c-.311,1.19-.763,2.166-1.178,3.28l-4.507,12.067.113.141L31.257,2.093l-5.134,13.93c-.181.193-.261.391-.288.623-.151.5-.403.883-.441,1.497h0ZM18.707,14.464c-.961-1.661-1.75-3.271-2.854-4.914l2.251,6.164.603-1.25h0ZM15.697,20.956c.057-.117.048-.387-.033-.531l-6.058-10.74-.114.074,5.089,13.456,1.116-2.26h0ZM17.283,17.554l-4.561-7.933,3.641,9.823.919-1.89ZM6.456,9.832l-.059.002.059.002h.06l.059-.002-.059-.002h-.06ZM19.651,16.275l-.09.198-.471,1.346c1.04-1.208.719-1.89.562-1.545h0ZM22.296,17.432l-.273.632c.244-.13.351-.223.273-.632Z" fill="#064c92"/></g></svg>