<?xml version="1.0" encoding="UTF-8"?><svg id="a" xmlns="http://www.w3.org/2000/svg" viewBox="0 0 542.4 160"><path d="M63.92.02l21.45.02c4.08,0,9.56-.1,13.55.2,14.54.95,28.37,6.51,39.4,15.85,11.11,9.45,18.67,22.28,21.47,36.45,1.11,5.54,1.48,11.38,1.32,17.01-.33,11.28.76,22.82-.75,34.02-1.68,12.44-7.02,23.96-15.34,33.47-11.22,12.68-26.9,20.76-43.91,22.63-5.02.53-9.8.25-14.85.24h-23.64c-3.77-.01-10.71-.21-14.27.08l-.22.02v-38.77s30.94.01,30.94.01c5.95,0,13.1.21,18.9-.28,7.1-.85,13.27-5.05,17.61-10.25,7.49-8.67,6.27-20.47,6.45-31.08.09-5.39.05-11.34-.54-16.74-.85-7.76-4.86-14.41-11.19-19.16-3.69-2.73-8.03-4.5-12.61-5.14-4.4-.61-14.02-.33-18.94-.33h-34.54s-29.5-.01-29.5-.01H5.82c-1.71,0-4.17-.07-5.82.15L.02.05C6.74-.07,13.94.06,20.71.05L63.92.01h0Z" fill="#10233f"/><path d="M.01,47.32c.76.07,1.61.09,2.38.09,12.2.08,24.43-.14,36.63,0-.15,2.82-.02,7.03-.03,9.97v21.22s.05,52.76.05,52.76c.01,9.38.19,19.22,0,28.54-7.71-.12-15.66-.03-23.39-.03-4.63,0-11.16-.18-15.65.11V47.32s0,0,0,0Z" fill="#10233f"/><path d="M259.18,109.09h4.8l8.06,22.88h-4.83l-1.54-4.86h-8.26l-1.5,4.86h-4.7l7.97-22.88ZM258.51,123.55h6.05l-2.05-6.59c-.38-1.22-.93-3.52-.93-3.52h-.06s-.58,2.3-.96,3.52l-2.05,6.59Z"/><path d="M319.62,128.89h-.06c-1.57,2.62-3.71,3.55-6.43,3.55-3.46,0-6.14-1.25-8.03-3.33-1.89-2.11-2.98-5.06-2.98-8.51,0-3.81,1.34-7.14,3.74-9.34,1.86-1.7,4.29-2.62,7.36-2.62,5.76,0,9.06,3.17,9.79,7.65h-4.54c-.51-2.21-2.21-3.81-5.15-3.81-4.32,0-6.46,3.58-6.46,8.13s2.46,8.1,6.4,8.1c3.55,0,5.89-2.66,5.89-5.18v-.13h-5.5v-3.58h9.63v12.16h-3.49l-.16-3.07Z"/><path d="M356.95,109.09h16.83v3.9h-12.19v5.12h10.69v3.81h-10.69v6.17h12.29v3.87h-16.93v-22.88Z"/><path d="M406.96,109.09h4.7l7.62,12.77c.74,1.25,1.6,3.2,1.6,3.2h.06s-.13-2.37-.13-3.97v-12h4.58v22.88h-4.48l-7.81-12.64c-.74-1.22-1.63-3.17-1.63-3.17h-.06s.13,2.4.13,4v11.81h-4.58v-22.88Z"/><path d="M458.24,120.61c0-6.78,4.22-11.97,10.98-11.97,5.63,0,8.96,3.36,9.44,7.71h-4.61c-.42-2.3-2.14-3.81-4.83-3.81-4.22,0-6.24,3.52-6.24,8.06s2.43,8.03,6.27,8.03c2.72,0,4.64-1.63,4.93-4.03h4.54c-.13,2.02-.99,3.97-2.53,5.41-1.57,1.47-3.78,2.43-6.94,2.43-6.43,0-11.01-4.96-11.01-11.84Z"/><path d="M516.24,123.13l-7.62-14.05h5.06l3.46,6.78c.7,1.38,1.5,3.26,1.5,3.26h.06s.86-1.89,1.54-3.26l3.39-6.78h4.86l-7.62,14.05v8.83h-4.64v-8.83Z"/><path d="M246.2,29.87h21.96c14.26,0,23.83,10.3,23.83,26.07,0,9.07-3.17,16.35-8.93,20.74-4.03,3.02-9.22,4.68-15.7,4.68h-21.17V29.87ZM266.44,70.63c8.35,0,12.67-5.26,12.67-14.69s-4.54-15.41-12.53-15.41h-7.63v30.1h7.49Z" fill="#10233f"/><path d="M293.13,62.85c0-11.02,7.7-19.44,18.94-19.44,5.26,0,9.43,1.73,12.6,4.61,4.39,4.03,6.55,10.44,6.48,17.93h-26.5c.72,4.97,3.46,8.06,8.28,8.06,3.1,0,5.11-1.37,6.12-3.67h11.45c-.79,3.31-2.95,6.48-6.19,8.71-3.1,2.16-6.84,3.38-11.52,3.38-12.17,0-19.66-8.42-19.66-19.59ZM319.27,58.96c-.43-4.39-3.17-7.2-6.98-7.2-4.46,0-6.77,2.81-7.56,7.2h14.54Z" fill="#10233f"/><path d="M333.55,44.49h11.23v5.26h.22c2.3-3.82,5.83-6.34,11.16-6.34,4.82,0,8.5,2.52,10.37,6.48h.14c2.88-4.46,6.84-6.48,11.59-6.48,8.35,0,12.53,5.69,12.53,13.97v23.98h-11.74v-21.89c0-3.96-1.66-6.26-5.18-6.26-3.74,0-5.83,3.1-5.83,7.49v20.67h-11.74v-21.89c0-3.96-1.66-6.26-5.18-6.26s-5.83,3.1-5.83,7.49v20.67h-11.74v-36.87Z" fill="#10233f"/><path d="M394.95,44.49h11.23v4.46h.22c2.52-3.31,6.12-5.54,11.16-5.54,9.79,0,15.77,8.42,15.77,19.51,0,11.95-6.41,19.59-16.06,19.59-4.75,0-8.14-1.87-10.44-4.97h-.14v15.99h-11.74v-49.04ZM421.44,63.36c0-6.34-2.38-10.51-7.42-10.51s-7.7,4.54-7.7,10.51,2.88,10.08,7.92,10.08c4.46,0,7.2-3.82,7.2-10.08Z" fill="#10233f"/><path d="M433.58,69.41h11.09c.43,3.67,2.88,5.47,6.77,5.47,3.53,0,5.76-1.3,5.76-3.67,0-3.31-4.46-3.67-9.36-4.54-6.41-1.08-13.25-2.81-13.25-11.45,0-7.78,7.2-11.81,15.91-11.81,10.44,0,16.06,4.54,16.63,11.81h-10.8c-.43-3.31-2.66-4.32-5.9-4.32-2.88,0-5.11,1.08-5.11,3.38,0,2.59,4.18,2.95,8.86,3.82,6.48,1.08,14.11,2.74,14.11,12.17,0,8.06-7.13,12.24-16.78,12.24-10.8,0-17.57-4.97-17.93-13.1Z" fill="#10233f"/><path d="M468.7,62.85c0-11.02,7.7-19.44,18.94-19.44,5.26,0,9.43,1.73,12.6,4.61,4.39,4.03,6.55,10.44,6.48,17.93h-26.5c.72,4.97,3.46,8.06,8.28,8.06,3.1,0,5.11-1.37,6.12-3.67h11.45c-.79,3.31-2.95,6.48-6.19,8.71-3.1,2.16-6.84,3.38-11.52,3.38-12.17,0-19.66-8.42-19.66-19.59ZM494.83,58.96c-.43-4.39-3.17-7.2-6.98-7.2-4.46,0-6.77,2.81-7.56,7.2h14.54Z" fill="#10233f"/><path d="M508.12,84.38h4.03c3.46,0,4.82-1.37,4.82-3.89,0-1.58-.72-3.74-2.23-7.63l-10.87-28.37h12.38l4.97,15.7c1.15,3.6,2.3,8.5,2.3,8.5h.14s1.01-4.9,2.16-8.5l4.82-15.7h11.74l-12.75,37.37c-2.95,8.64-6.48,11.67-13.9,11.67h-7.63v-9.14Z" fill="#10233f"/><line x1="201.92" y1="30" x2="201.92" y2="130" fill="#10233f" stroke="#10233f" stroke-miterlimit="10" stroke-width="1.5"/></svg>