<svg xmlns="http://www.w3.org/2000/svg"  viewBox="0 0 30 30" width="30px" height="30px"><path fill="#ff7bb7" d="M2.5 2.5H27.5V27.5H2.5z"/><path fill="#ea4c89" d="M27,3v24H3V3H27 M28,2H2v26h26V2L28,2z"/><path fill="#4c5a6b" d="M5.5 5.5H24.5V24.5H5.5z"/><path fill="#36404d" d="M24,6v18H6V6H24 M25,5H5v20h20V5L25,5z"/><path fill="#ff7bb7" d="M12 20h-2v-9.643h2V20zM18 10v3.875c-.342-.614-1.055-.845-1.925-.845-.917 0-1.659.332-2.226.993C13.284 14.686 13 15.566 13 16.665c0 1.051.257 1.87.77 2.456C14.284 19.707 14.963 20 15.805 20c.918 0 1.721-.407 2.195-1.125v.375V20h2V10H18zM17.647 17.93c-.277.334-.634.5-1.073.5-.461 0-.823-.158-1.083-.474-.26-.315-.391-.765-.391-1.349 0-.623.135-1.113.404-1.47.27-.357.645-.536 1.125-.536.425 0 .77.143 1.035.428.166.18.274.391.336.629v1.5C17.936 17.457 17.822 17.718 17.647 17.93z"/></svg>